<?xml version="1.0" standalone="no"?>
<!DOCTYPE svg PUBLIC "-//W3C//DTD SVG 20010904//EN"
 "http://www.w3.org/TR/2001/REC-SVG-20010904/DTD/svg10.dtd">
<svg version="1.0" xmlns="http://www.w3.org/2000/svg"
 width="96.000000pt" height="96.000000pt" viewBox="0 0 96.000000 96.000000"
 preserveAspectRatio="xMidYMid meet">
<metadata>
Created by potrace 1.14, written by Peter Selinger 2001-2017
</metadata>
<g transform="translate(0.000000,96.000000) scale(0.100000,-0.100000)"
fill="#000000" stroke="none">
<path d="M177 780 l-74 -75 1 -300 1 -300 303 0 303 -1 37 41 c20 22 53 58 73
81 l35 40 0 295 -1 294 -302 0 -303 1 -73 -76z m223 41 c3 -1 5 -24 5 -51 l0
-51 -75 3 c-74 3 -74 3 -73 31 3 79 -4 73 71 71 37 -1 69 -2 72 -3z m300 0 c5
-1 5 -44 1 -89 -1 -10 -20 -12 -73 -10 l-72 3 -1 45 c0 25 3 47 6 50 6 4 120
5 139 1z m117 -125 c11 -10 11 -126 1 -133 -5 -3 -29 -6 -54 -8 l-44 -2 0 73
c0 40 4 74 10 76 19 6 79 2 87 -6z m-565 -18 c4 -11 3 -101 -1 -118 -2 -8 -99
-6 -107 3 -8 8 -13 96 -6 115 2 7 24 12 57 12 33 0 54 -5 57 -12z m302 -59
l-1 -66 66 1 66 1 0 -75 0 -74 -66 -1 -65 -1 1 69 c1 40 -2 70 -9 75 -6 4 -36
7 -66 7 -30 1 -60 4 -66 7 -7 5 -12 108 -5 126 0 2 34 2 74 0 l72 -3 -1 -66z
m-149 -137 c0 -40 -2 -72 -5 -73 -3 -1 -32 -2 -65 -3 -33 -1 -65 -4 -71 -8 -6
-4 -10 -36 -9 -75 l1 -68 64 0 c36 -1 70 0 76 2 7 3 11 30 9 74 -1 38 1 69 4
70 32 6 134 2 139 -5 3 -6 6 -40 7 -76 l1 -66 -65 2 c-36 0 -71 -1 -78 -3 -7
-3 -10 -25 -9 -58 3 -61 3 -61 -89 -60 l-60 0 0 60 0 60 -50 0 c-27 0 -55 3
-61 7 -5 4 -10 37 -9 75 l1 67 59 1 60 0 0 65 c1 36 4 70 7 75 3 6 37 10 74
10 l68 -1 1 -72z m416 -81 c10 -2 1 -134 -10 -140 -6 -4 -27 -7 -48 -6 l-38 0
-3 64 c-2 35 -1 69 1 75 4 10 68 14 98 7z m-136 -206 l0 -60 -55 -1 c-30 0
-60 1 -65 3 -11 4 -13 92 -2 109 3 6 32 10 64 9 l58 -1 0 -59z"/>
</g>
</svg>
