<?xml version="1.0" standalone="no"?>
<!DOCTYPE svg PUBLIC "-//W3C//DTD SVG 20010904//EN"
 "http://www.w3.org/TR/2001/REC-SVG-20010904/DTD/svg10.dtd">
<svg version="1.0" xmlns="http://www.w3.org/2000/svg"
 width="96.000000pt" height="96.000000pt" viewBox="0 0 96.000000 96.000000"
 preserveAspectRatio="xMidYMid meet">
<metadata>
Created by potrace 1.11, written by Peter Selinger 2001-2013
</metadata>
<g transform="translate(0.000000,96.000000) scale(0.100000,-0.100000)"
fill="#000000" stroke="none">
<path d="M126 803 c-4 -12 0 -40 8 -64 19 -61 31 -118 66 -319 17 -96 35 -191
39 -210 5 -19 12 -47 15 -63 5 -20 12 -27 29 -27 26 0 81 52 70 65 -5 4 -3 5
3 2 15 -9 48 29 38 44 -4 8 -3 10 4 5 15 -9 75 52 66 67 -4 7 -3 9 1 4 11 -10
66 43 58 56 -3 6 -2 7 4 4 13 -8 56 37 46 47 -5 4 -3 6 3 4 6 -1 30 17 53 42
24 25 81 84 129 132 78 80 85 89 75 111 -13 27 -69 48 -212 76 -154 31 -158
32 -327 38 -156 5 -162 5 -168 -14z"/>
</g>
</svg>
