<?xml version="1.0" standalone="no"?>
<!DOCTYPE svg PUBLIC "-//W3C//DTD SVG 20010904//EN"
 "http://www.w3.org/TR/2001/REC-SVG-20010904/DTD/svg10.dtd">
<svg version="1.0" xmlns="http://www.w3.org/2000/svg"
 width="96.000000pt" height="96.000000pt" viewBox="0 0 96.000000 96.000000"
 preserveAspectRatio="xMidYMid meet">
<metadata>
Created by potrace 1.14, written by Peter Selinger 2001-2017
</metadata>
<g transform="translate(0.000000,96.000000) scale(0.100000,-0.100000)"
fill="#000000" stroke="none">
<path d="M220 690 l0 -50 50 0 50 0 0 50 0 50 -50 0 -50 0 0 -50z"/>
<path d="M360 690 l0 -50 50 0 50 0 0 50 0 50 -50 0 -50 0 0 -50z"/>
<path d="M500 690 l0 -50 50 0 50 0 0 50 0 50 -50 0 -50 0 0 -50z"/>
<path d="M640 690 l0 -50 50 0 50 0 0 50 0 50 -50 0 -50 0 0 -50z"/>
<path d="M220 550 l0 -50 50 0 50 0 0 50 0 50 -50 0 -50 0 0 -50z"/>
<path d="M360 550 l0 -50 50 0 50 0 0 50 0 50 -50 0 -50 0 0 -50z"/>
<path d="M500 550 l0 -50 50 0 50 0 0 50 0 50 -50 0 -50 0 0 -50z"/>
<path d="M640 550 l0 -50 50 0 50 0 0 50 0 50 -50 0 -50 0 0 -50z"/>
<path d="M220 410 l0 -50 50 0 50 0 0 50 0 50 -50 0 -50 0 0 -50z"/>
<path d="M360 410 l0 -50 50 0 50 0 0 50 0 50 -50 0 -50 0 0 -50z"/>
<path d="M500 409 l0 -50 48 3 47 3 3 48 3 47 -50 0 -51 0 0 -51z"/>
<path d="M640 435 c0 -14 1 -25 3 -25 1 0 22 6 46 14 64 19 65 36 2 36 -48 0
-51 -2 -51 -25z"/>
<path d="M675 384 c-151 -78 -154 -282 -5 -362 95 -50 215 -11 268 88 50 94
11 215 -87 267 -52 27 -131 31 -176 7z m164 -71 c69 -50 77 -149 17 -209 -87
-87 -231 -27 -231 96 0 111 126 177 214 113z"/>
<path d="M738 260 c-1 -22 -2 -48 -2 -58 -1 -10 18 -35 42 -56 40 -36 44 -38
59 -23 15 15 13 19 -20 57 -30 32 -37 48 -37 80 0 33 -3 40 -20 40 -16 0 -20
-7 -22 -40z"/>
<path d="M220 270 l0 -50 50 0 50 0 0 50 0 50 -50 0 -50 0 0 -50z"/>
<path d="M360 270 l0 -50 50 0 50 0 0 50 0 50 -50 0 -50 0 0 -50z"/>
<path d="M500 269 c0 -63 17 -62 36 2 8 24 14 45 14 47 0 1 -11 2 -25 2 -23 0
-25 -3 -25 -51z"/>
</g>
</svg>
