<?xml version="1.0" standalone="no"?>
<!DOCTYPE svg PUBLIC "-//W3C//DTD SVG 20010904//EN"
 "http://www.w3.org/TR/2001/REC-SVG-20010904/DTD/svg10.dtd">
<svg version="1.0" xmlns="http://www.w3.org/2000/svg"
 width="96.000000pt" height="96.000000pt" viewBox="0 0 96.000000 96.000000"
 preserveAspectRatio="xMidYMid meet">
<metadata>
Created by potrace 1.14, written by Peter Selinger 2001-2017
</metadata>
<g transform="translate(0.000000,96.000000) scale(0.100000,-0.100000)"
fill="#000000" stroke="none">
<path d="M287 833 c-4 -3 -7 -149 -7 -324 0 -253 3 -318 13 -322 7 -3 46 22
86 55 40 33 76 56 80 52 4 -5 25 -49 46 -99 52 -122 54 -123 107 -99 24 10 46
23 49 28 4 5 -15 58 -41 117 -28 64 -43 109 -37 110 7 0 23 2 37 4 25 4 109
14 123 14 30 3 -21 65 -211 254 -119 119 -222 217 -228 217 -6 0 -14 -3 -17
-7z"/>
</g>
</svg>
