<?xml version="1.0" standalone="no"?>
<!DOCTYPE svg PUBLIC "-//W3C//DTD SVG 20010904//EN"
 "http://www.w3.org/TR/2001/REC-SVG-20010904/DTD/svg10.dtd">
<svg version="1.0" xmlns="http://www.w3.org/2000/svg"
 width="180.000000pt" height="180.000000pt" viewBox="0 0 180.000000 180.000000"
 preserveAspectRatio="xMidYMid meet">
<metadata>
Created by potrace 1.14, written by Peter Selinger 2001-2017
</metadata>
<g transform="translate(0.000000,180.000000) scale(0.100000,-0.100000)"
fill="#000000" stroke="none">
<path d="M592 1560 c-35 -11 -75 -26 -88 -35 -32 -21 -93 -105 -94 -129 0 -10
-7 -24 -16 -30 -8 -7 -18 -30 -21 -53 -7 -50 5 -175 16 -168 5 2 14 26 22 52
16 60 100 148 180 189 44 23 67 28 124 28 39 1 80 -5 93 -12 20 -12 21 -15 7
-28 -18 -18 -19 -26 -3 -42 8 -8 5 -14 -16 -22 -15 -5 -32 -10 -37 -10 -26 0
-71 -34 -99 -75 -29 -42 -30 -47 -16 -67 9 -12 16 -31 16 -42 0 -11 8 -28 18
-39 16 -19 15 -21 -35 -66 -43 -39 -53 -54 -53 -80 0 -35 27 -54 41 -29 6 10
22 14 55 12 58 -3 62 -8 28 -31 -16 -10 -51 -40 -78 -68 -28 -27 -54 -49 -58
-48 -5 2 -8 -9 -8 -23 0 -37 28 -28 61 20 14 21 41 47 60 57 51 27 56 23 13
-12 -51 -40 -53 -43 -28 -37 18 5 21 2 16 -15 -5 -18 -2 -19 34 -13 21 4 49 7
62 7 12 1 22 5 22 10 0 20 4 24 29 35 14 6 37 23 51 38 53 58 171 126 218 126
25 0 -6 -29 -42 -38 -21 -6 -32 -15 -34 -30 -2 -12 -23 -37 -47 -55 -86 -64
-84 -97 6 -97 36 0 59 -4 59 -11 0 -14 -36 -61 -77 -101 -26 -24 -33 -39 -33
-69 0 -48 -8 -69 -27 -69 -13 0 -13 -3 -3 -15 10 -12 9 -15 -8 -15 -11 0 -47
-15 -80 -34 -54 -30 -64 -33 -103 -25 -24 4 -47 8 -51 9 -5 0 -8 7 -8 15 0 21
-27 30 -44 16 -8 -7 -31 -10 -52 -8 -43 5 -112 -25 -158 -68 -15 -14 -30 -25
-34 -25 -4 0 -15 -9 -24 -19 -15 -18 -14 -21 10 -43 15 -14 40 -35 57 -47 l29
-22 10 23 c5 13 8 28 7 35 -1 7 11 11 30 11 32 -1 51 16 42 37 -6 16 67 26 85
12 17 -13 15 -24 -7 -46 -12 -12 -28 -17 -39 -14 -15 3 -22 -1 -27 -18 -4 -12
-18 -32 -32 -45 l-25 -23 43 -22 c259 -132 590 -108 839 61 65 45 210 193 210
216 0 9 -8 18 -17 20 -16 4 -18 16 -15 94 3 86 13 113 27 70 8 -26 27 -25 43
1 10 16 19 19 39 14 21 -5 24 -3 19 10 -3 9 -2 14 3 10 20 -12 60 270 41 289
-6 5 -131 17 -177 16 -18 0 -35 5 -38 10 -3 6 -10 10 -14 10 -12 0 -67 -54
-74 -72 -4 -10 -12 -18 -20 -18 -24 0 -67 -53 -57 -70 7 -12 12 -12 22 -2 6 6
19 12 28 12 13 -1 12 -3 -2 -14 -28 -20 -23 -39 8 -32 18 5 24 3 19 -5 -11
-17 17 -30 34 -16 8 7 5 -5 -8 -26 -26 -42 -22 -86 4 -51 13 18 14 16 15 -23
0 -24 5 -43 10 -43 6 0 10 6 11 13 0 6 4 3 9 -8 9 -19 9 -19 16 2 19 64 32
-33 16 -122 -6 -34 -12 -41 -37 -45 -28 -5 -30 -8 -27 -44 3 -33 1 -37 -15
-33 -10 3 -41 10 -68 17 l-50 11 -22 77 c-12 42 -32 113 -46 157 -13 44 -27
97 -30 118 -6 35 -5 37 23 37 46 0 63 25 56 80 -16 119 -49 200 -82 200 -7 0
-34 42 -60 93 -58 116 -94 169 -121 182 -12 5 -24 17 -26 27 -3 10 -22 25 -43
34 -21 9 -50 25 -63 35 -18 15 -27 17 -38 7 -10 -8 -17 -8 -24 -1 -8 8 -7 13
0 17 6 4 11 11 11 16 0 13 -82 60 -122 70 -70 17 -85 17 -146 0z m225 -426
c-3 -3 -12 -4 -19 -1 -8 3 -5 6 6 6 11 1 17 -2 13 -5z m189 -49 c2 -12 -11
-33 -31 -54 -19 -19 -37 -42 -40 -52 -5 -15 -16 -19 -51 -19 -30 0 -44 4 -44
13 0 8 -16 30 -35 50 -19 20 -35 46 -35 59 0 23 2 23 117 23 108 0 116 -1 119
-20z m704 -155 c0 -5 -2 -10 -4 -10 -3 0 -8 5 -11 10 -3 6 -1 10 4 10 6 0 11
-4 11 -10z m-586 -299 c8 -13 -67 -71 -90 -71 -17 1 -17 3 4 19 12 11 22 23
22 28 0 26 52 45 64 24z m48 -151 c-24 -25 -29 -26 -42 -13 -13 13 -12 17 14
39 22 19 31 22 42 13 11 -9 9 -16 -14 -39z m-592 -267 c0 -24 -25 -9 -28 17
-3 21 -2 22 12 11 9 -7 16 -20 16 -28z m67 -29 c-3 -3 -12 -4 -19 -1 -8 3 -5
6 6 6 11 1 17 -2 13 -5z"/>
<path d="M494 1159 c-35 -10 -94 -70 -94 -96 0 -14 4 -13 24 6 15 14 26 19 31
12 3 -6 2 -11 -3 -11 -5 0 -18 -16 -27 -36 -14 -31 -15 -43 -6 -74 l11 -38 34
34 c41 41 71 46 32 5 -16 -16 -26 -35 -24 -43 3 -8 24 6 59 39 l54 52 0 66 c0
54 -4 70 -20 81 -21 16 -27 16 -71 3z"/>
<path d="M371 1040 c0 -33 1 -34 11 -12 8 17 8 26 0 34 -9 9 -12 4 -11 -22z"/>
<path d="M563 558 c-6 -7 -12 -27 -15 -44 l-4 -31 37 11 c42 13 44 22 14 54
-17 18 -24 20 -32 10z"/>
<path d="M590 309 c0 -6 -7 -9 -15 -5 -8 3 -15 1 -15 -3 0 -15 27 -20 39 -8
14 14 14 27 1 27 -5 0 -10 -5 -10 -11z"/>
<path d="M473 235 c-3 -9 -3 -18 0 -22 10 -10 37 6 37 22 0 20 -29 20 -37 0z"/>
</g>
</svg>
