<?xml version="1.0" standalone="no"?>
<!DOCTYPE svg PUBLIC "-//W3C//DTD SVG 20010904//EN"
 "http://www.w3.org/TR/2001/REC-SVG-20010904/DTD/svg10.dtd">
<svg version="1.0" xmlns="http://www.w3.org/2000/svg"
 width="180.000000pt" height="180.000000pt" viewBox="0 0 180.000000 180.000000"
 preserveAspectRatio="xMidYMid meet">
<metadata>
Created by potrace 1.14, written by Peter Selinger 2001-2017
</metadata>
<g transform="translate(0.000000,180.000000) scale(0.100000,-0.100000)"
fill="#000000" stroke="none">
<path d="M737 1786 c-31 -7 -59 -10 -62 -8 -3 3 -5 -1 -5 -8 0 -7 -3 -11 -6
-8 -3 4 -20 0 -37 -7 -18 -7 -35 -14 -40 -14 -4 0 -22 -7 -40 -15 -19 -7 -43
-17 -55 -20 -12 -4 -22 -12 -22 -17 0 -5 -6 -9 -14 -9 -8 0 -28 -11 -44 -25
-17 -14 -34 -25 -40 -25 -12 0 -170 -156 -197 -196 -37 -52 -85 -135 -85 -145
0 -5 -7 -21 -16 -34 -9 -13 -17 -30 -18 -37 -1 -7 -10 -37 -19 -66 -9 -29 -13
-60 -10 -69 4 -10 2 -14 -4 -10 -7 4 -13 -9 -16 -36 -8 -78 0 -282 13 -327 8
-25 14 -47 15 -50 1 -3 5 -22 9 -42 5 -21 12 -38 17 -38 5 0 8 -3 7 -7 -3 -9
23 -76 32 -83 3 -3 12 -20 19 -37 8 -18 17 -33 22 -33 5 0 9 -6 9 -13 0 -7 13
-27 29 -45 17 -17 27 -32 24 -32 -2 0 32 -36 78 -80 45 -44 88 -80 96 -80 7 0
13 -4 13 -8 0 -7 136 -85 142 -81 2 1 21 -7 43 -18 22 -12 42 -21 45 -21 3 0
23 -5 45 -11 81 -21 122 -26 235 -25 96 1 185 7 185 14 0 2 14 5 55 13 35 7
160 57 190 76 58 37 66 41 80 48 33 16 159 136 200 192 14 18 33 43 42 54 10
11 15 24 12 28 -3 5 -1 9 4 9 8 0 36 50 32 59 -1 2 3 7 10 11 6 4 12 13 13 21
2 8 5 19 8 24 7 11 46 135 55 175 8 35 14 282 7 294 -4 5 -7 21 -9 35 -6 55
-25 119 -57 191 -11 25 -21 47 -22 50 -7 23 -41 80 -47 80 -5 0 -6 5 -3 10 3
6 2 10 -2 10 -5 0 -17 14 -27 32 -45 74 -259 258 -302 258 -8 0 -14 5 -14 10
0 6 -7 10 -15 10 -8 0 -30 9 -50 20 -20 11 -44 20 -55 20 -11 0 -20 4 -20 8 0
5 -6 9 -12 9 -7 0 -29 4 -48 8 -19 4 -46 9 -60 12 -58 11 -259 10 -313 -1z"/>
</g>
</svg>
