<?xml version="1.0" standalone="no"?>
<!DOCTYPE svg PUBLIC "-//W3C//DTD SVG 20010904//EN"
 "http://www.w3.org/TR/2001/REC-SVG-20010904/DTD/svg10.dtd">
<svg version="1.0" xmlns="http://www.w3.org/2000/svg"
 width="128.000000pt" height="128.000000pt" viewBox="0 0 128.000000 128.000000"
 preserveAspectRatio="xMidYMid meet">
<metadata>
Created by potrace 1.14, written by Peter Selinger 2001-2017
</metadata>
<g transform="translate(0.000000,128.000000) scale(0.100000,-0.100000)"
fill="#000000" stroke="none">
<path d="M505 1140 c-90 -24 -163 -68 -234 -138 -314 -316 -101 -858 344 -878
327 -14 584 267 537 589 -44 307 -350 509 -647 427z m292 -48 c126 -48 214
-126 269 -237 164 -333 -81 -708 -451 -691 -356 17 -563 396 -390 714 54 100
179 195 296 226 75 20 209 14 276 -12z"/>
<path d="M307 813 c-11 -10 -8 -259 3 -287 5 -14 24 -35 42 -46 31 -19 48 -20
228 -18 l195 3 3 132 c4 218 -2 223 -276 223 -104 0 -192 -3 -195 -7z"/>
<path d="M893 764 l-73 -55 0 -69 0 -70 73 -55 c41 -30 77 -55 80 -55 4 0 7
81 7 180 0 99 -3 180 -7 180 -5 0 -41 -25 -80 -56z"/>
</g>
</svg>
