<?xml version="1.0" standalone="no"?>
<!DOCTYPE svg PUBLIC "-//W3C//DTD SVG 20010904//EN"
 "http://www.w3.org/TR/2001/REC-SVG-20010904/DTD/svg10.dtd">
<svg version="1.0" xmlns="http://www.w3.org/2000/svg"
 width="96.000000pt" height="96.000000pt" viewBox="0 0 96.000000 96.000000"
 preserveAspectRatio="xMidYMid meet">
<metadata>
Created by potrace 1.14, written by Peter Selinger 2001-2017
</metadata>
<g transform="translate(0.000000,96.000000) scale(0.100000,-0.100000)"
fill="#000000" stroke="none">
<path d="M334 848 c-92 -62 -191 -215 -243 -377 -26 -80 -19 -97 79 -192 113
-110 184 -148 292 -156 61 -5 87 -2 142 17 37 12 70 20 73 17 2 -3 12 -20 21
-39 15 -29 22 -33 54 -32 77 2 100 49 106 210 5 134 -1 154 -51 184 -43 27
-94 25 -153 -5 -58 -29 -67 -30 -85 -9 -21 26 -86 54 -124 54 -20 0 -53 -9
-75 -20 -22 -11 -46 -20 -55 -20 -14 0 -14 2 -1 23 9 12 19 59 24 103 7 59 16
90 32 112 24 32 60 49 60 27 0 -40 97 -58 131 -24 25 25 23 92 -3 116 -17 15
-118 42 -159 43 -9 0 -38 -15 -65 -32z"/>
</g>
</svg>
