<?xml version="1.0" standalone="no"?>
<!DOCTYPE svg PUBLIC "-//W3C//DTD SVG 20010904//EN"
 "http://www.w3.org/TR/2001/REC-SVG-20010904/DTD/svg10.dtd">
<svg version="1.0" xmlns="http://www.w3.org/2000/svg"
 width="96.000000pt" height="96.000000pt" viewBox="0 0 96.000000 96.000000"
 preserveAspectRatio="xMidYMid meet">
<metadata>
Created by potrace 1.11, written by Peter Selinger 2001-2013
</metadata>
<g transform="translate(0.000000,96.000000) scale(0.100000,-0.100000)"
fill="#000000" stroke="none">
<path d="M83 941 c-18 -28 4 -52 51 -55 47 -2 71 -28 53 -57 -10 -15 -24 -19
-74 -19 -50 0 -67 -4 -84 -21 -18 -18 -19 -23 -6 -42 8 -12 20 -23 26 -23 6
-1 15 -2 20 -3 5 0 7 -15 6 -31 -1 -17 1 -33 5 -35 5 -3 9 -84 10 -180 0 -151
-1 -175 -15 -175 -8 0 -15 -5 -15 -12 0 -6 -3 -9 -6 -5 -4 3 -13 -1 -22 -9
-17 -17 -25 -64 -11 -64 5 0 9 -6 9 -14 0 -8 14 -19 30 -25 17 -5 30 -7 30 -4
0 4 6 -2 14 -12 13 -18 28 -20 153 -21 168 -2 156 0 141 -24 -10 -16 -24 -20
-70 -20 -34 0 -58 -4 -58 -11 0 -5 -4 -8 -9 -5 -5 3 -12 -1 -15 -10 -9 -24 -8
-31 10 -48 13 -14 58 -16 333 -16 l318 0 12 24 c11 19 10 27 0 45 -11 17 -23
21 -67 21 -29 0 -62 5 -72 10 -30 16 -14 37 27 35 25 -1 42 5 59 22 13 13 28
23 33 23 14 0 31 34 31 59 0 12 -4 21 -10 21 -5 0 -10 7 -10 17 0 9 -3 14 -6
10 -4 -3 -13 0 -20 8 -11 10 -14 46 -14 144 l0 131 29 0 c17 0 33 5 36 10 4 6
11 8 16 5 5 -4 9 2 9 13 0 31 -31 49 -83 47 -52 -1 -72 13 -63 43 5 14 15 18
41 17 20 -1 38 2 41 7 3 4 9 6 14 3 5 -3 12 6 16 20 7 28 -9 55 -33 55 -15 0
-38 19 -41 33 -4 22 -21 32 -59 33 -24 0 -43 -2 -43 -6 0 -3 -8 -6 -17 -7 -10
-1 -31 -4 -48 -7 -35 -6 -50 11 -28 33 10 9 36 15 75 16 58 1 77 12 78 42 0
29 -44 33 -377 33 -321 0 -339 -1 -350 -19z"/>
</g>
</svg>
