<?xml version="1.0" standalone="no"?>
<!DOCTYPE svg PUBLIC "-//W3C//DTD SVG 20010904//EN"
 "http://www.w3.org/TR/2001/REC-SVG-20010904/DTD/svg10.dtd">
<svg version="1.0" xmlns="http://www.w3.org/2000/svg"
 width="992.000000pt" height="992.000000pt" viewBox="0 0 992.000000 992.000000"
 preserveAspectRatio="xMidYMid meet">
<metadata>
Created by potrace 1.11, written by Peter Selinger 2001-2013
</metadata>
<g transform="translate(0.000000,992.000000) scale(0.100000,-0.100000)"
fill="#000000" stroke="none">
<path d="M2805 8688 c-7 -5 -28 -10 -47 -12 -18 -3 -33 -5 -33 -6 0 -1 -15 -3
-33 -5 -59 -6 -157 -63 -225 -130 -91 -90 -138 -195 -140 -312 -1 -62 44 -180
83 -222 45 -46 144 -107 185 -115 6 -1 16 -5 24 -10 19 -12 190 -15 226 -3 17
5 36 9 43 10 6 0 12 4 12 8 0 4 18 18 40 30 21 12 37 26 35 30 -3 4 2 9 10 13
8 3 15 12 15 21 0 8 5 15 12 15 6 0 8 3 5 7 -4 3 -2 13 5 20 7 9 11 48 10 101
-1 93 -11 153 -31 190 -9 17 -9 27 -1 37 9 11 16 10 43 -3 30 -14 47 -27 126
-94 42 -36 116 -128 125 -156 4 -12 12 -20 17 -16 5 3 8 2 7 -3 -1 -4 6 -33
16 -63 10 -30 19 -71 20 -90 1 -19 4 -40 8 -45 7 -11 2 -169 -7 -230 -10 -63
-11 -69 -20 -88 -4 -10 -9 -26 -10 -35 -1 -10 -7 -30 -15 -47 -7 -16 -12 -34
-11 -39 1 -4 -4 -15 -11 -23 -7 -8 -13 -20 -14 -27 -5 -33 -145 -288 -174
-316 -3 -3 -9 -12 -15 -21 -30 -49 -71 -106 -87 -121 -9 -10 -43 -50 -75 -90
-32 -40 -73 -85 -90 -101 -18 -16 -30 -34 -26 -41 3 -6 3 -8 -2 -4 -4 4 -48
-34 -96 -84 -49 -50 -89 -88 -89 -83 0 4 -27 -20 -60 -53 -33 -33 -60 -57 -60
-54 0 2 -19 -13 -43 -34 -23 -22 -57 -50 -75 -64 -18 -14 -41 -32 -52 -40 -10
-8 -28 -22 -41 -30 -13 -8 -33 -25 -46 -37 -13 -13 -30 -23 -38 -23 -8 0 -15
-4 -15 -9 0 -5 -27 -26 -60 -47 -33 -22 -60 -42 -60 -46 0 -5 -6 -8 -14 -8 -7
0 -34 -16 -59 -35 -25 -19 -48 -35 -51 -35 -5 0 -25 -15 -60 -45 -6 -5 -18
-11 -26 -13 -8 -2 -18 -9 -22 -15 -4 -7 -8 -7 -8 -2 0 6 -3 5 -8 -1 -4 -6 -33
-27 -65 -45 -74 -43 -83 -49 -134 -82 -24 -15 -47 -27 -53 -27 -5 0 -10 -4
-10 -10 0 -5 -6 -10 -14 -10 -8 0 -22 -8 -32 -17 -10 -10 -19 -17 -21 -16 -7
5 -63 -20 -63 -28 0 -5 -3 -8 -7 -8 -13 3 -73 -22 -73 -30 0 -4 -25 -18 -55
-31 -30 -13 -55 -29 -55 -34 0 -5 -3 -6 -6 -3 -4 4 -19 -2 -34 -13 -16 -11
-33 -20 -39 -20 -9 0 -16 -26 -13 -51 3 -23 12 -58 22 -85 6 -17 10 -35 9 -40
-1 -5 3 -22 9 -37 7 -15 11 -31 11 -35 -2 -15 14 -52 22 -52 5 0 8 -3 8 -7 -1
-5 -1 -10 1 -13 1 -3 3 -15 6 -28 6 -34 63 -146 79 -154 7 -4 16 -20 19 -34 6
-22 44 -82 66 -104 3 -3 16 -21 29 -40 13 -19 35 -46 48 -60 83 -88 147 -151
192 -190 29 -25 62 -54 75 -65 58 -53 242 -185 257 -185 5 0 9 -5 9 -11 0 -5
5 -7 10 -4 6 3 10 2 10 -3 0 -8 73 -47 77 -41 1 2 12 -5 25 -17 13 -11 53 -35
91 -54 37 -18 67 -37 67 -42 0 -5 4 -7 9 -3 5 3 16 -2 24 -10 9 -8 20 -15 26
-15 6 0 26 -9 44 -19 85 -47 169 -87 180 -83 4 1 21 -7 36 -17 16 -11 31 -18
35 -14 3 3 6 1 6 -5 0 -7 9 -12 20 -12 11 0 20 -3 20 -7 0 -5 29 -17 65 -28
36 -10 65 -22 65 -26 0 -3 19 -12 43 -19 23 -8 60 -22 82 -33 22 -11 40 -19
40 -18 0 1 14 -3 30 -9 47 -17 55 -19 60 -20 3 0 18 -6 35 -15 16 -8 37 -17
47 -18 20 -4 47 -14 83 -30 14 -6 28 -10 33 -9 4 1 7 -3 7 -8 0 -6 6 -10 14
-10 8 0 16 -6 19 -13 7 -20 0 -66 -13 -82 -7 -8 -9 -15 -6 -15 4 0 0 -10 -8
-21 -8 -12 -12 -27 -10 -34 3 -7 -4 -31 -15 -53 -11 -22 -17 -42 -14 -46 4 -3
0 -6 -7 -6 -7 0 -10 -3 -7 -7 4 -3 1 -13 -7 -22 -8 -9 -15 -19 -16 -23 0 -4
-7 -22 -15 -40 -7 -18 -11 -36 -9 -40 3 -4 -7 -25 -21 -47 -14 -23 -25 -45
-25 -50 0 -6 -7 -27 -16 -48 -9 -21 -20 -47 -25 -58 -25 -65 -35 -85 -42 -85
-5 0 -6 -4 -2 -9 3 -6 -4 -27 -16 -48 -12 -21 -23 -47 -24 -58 0 -11 -11 -40
-23 -64 -12 -24 -19 -47 -17 -52 3 -4 1 -9 -5 -11 -5 -2 -6 -9 -1 -17 6 -9 26
-13 60 -12 64 3 93 3 329 -1 105 -2 192 0 192 3 0 4 26 5 58 2 133 -8 206 -7
221 3 17 13 23 144 6 144 -7 0 -7 3 0 8 12 9 14 112 2 112 -4 0 -5 6 0 12 11
19 10 108 -2 108 -7 0 -7 3 0 8 12 9 14 112 2 112 -4 0 -5 6 0 13 11 18 10
101 -2 109 -7 5 -7 8 0 8 7 0 10 34 8 93 -4 114 -4 103 0 160 2 26 0 50 -5 53
-4 3 -4 13 0 22 5 9 7 35 5 57 -4 47 -4 46 0 108 2 26 0 50 -5 53 -4 3 -4 13
1 22 17 32 -13 56 -72 58 -28 1 -70 5 -92 9 -22 3 -51 8 -65 10 -14 2 -36 6
-50 10 -14 3 -32 8 -40 10 -8 2 -17 4 -20 5 -3 1 -8 2 -12 1 -4 0 -25 6 -47
14 -23 8 -41 12 -41 8 0 -3 -6 -1 -12 5 -7 5 -29 13 -48 17 -39 7 -166 50
-220 74 -19 8 -37 15 -40 16 -3 1 -18 7 -33 13 -16 7 -32 12 -37 12 -5 0 -21
6 -37 14 -15 8 -61 30 -100 48 -40 18 -73 36 -73 41 0 4 -7 7 -15 7 -8 0 -37
14 -65 30 -28 17 -53 30 -56 30 -3 0 -19 9 -35 21 -16 11 -29 17 -29 12 0 -4
-5 0 -11 10 -5 9 -17 17 -24 17 -8 0 -15 4 -15 8 0 5 -12 15 -27 23 -16 8 -37
22 -47 32 -11 9 -23 17 -27 17 -4 0 -10 7 -13 16 -3 8 -2 13 3 10 5 -3 11 3
14 14 4 14 11 18 24 14 14 -4 13 -1 -6 15 -12 12 -27 18 -32 15 -5 -3 -9 0 -9
7 0 6 -19 31 -42 54 -24 23 -49 49 -56 59 -108 138 -122 160 -150 241 -12 32
-23 95 -24 135 -2 57 25 184 44 208 6 6 7 12 2 12 -5 0 -4 4 1 8 6 4 23 32 40
62 32 60 100 158 143 205 43 47 85 105 80 110 -3 3 -10 -5 -17 -18 -6 -12 -25
-31 -41 -42 -16 -10 -26 -23 -24 -27 3 -4 -5 -12 -19 -17 -13 -5 -38 -25 -55
-45 -18 -20 -32 -34 -32 -30 0 3 -15 -10 -34 -29 -18 -19 -43 -38 -56 -42 -12
-4 -19 -9 -16 -12 6 -6 -139 -113 -153 -113 -5 0 -12 -7 -15 -16 -4 -9 -9 -14
-13 -11 -3 4 -18 -2 -32 -11 -14 -10 -38 -23 -54 -30 -23 -10 -27 -16 -22 -40
16 -90 113 -226 267 -370 32 -30 55 -58 52 -63 -3 -5 2 -9 10 -9 9 0 16 -3 16
-7 0 -5 14 -17 30 -28 16 -11 30 -27 30 -35 0 -10 3 -11 8 -4 12 18 68 -47 67
-79 0 -15 -3 -27 -7 -27 -5 0 -14 0 -20 0 -7 0 -26 12 -43 28 -16 15 -64 54
-105 87 -100 80 -240 221 -240 242 0 5 -16 26 -36 48 -19 22 -41 51 -49 65
-26 47 -57 114 -59 125 -1 5 -4 15 -7 20 -8 14 -6 81 2 75 4 -3 15 3 25 12 11
9 30 22 44 28 66 30 299 186 307 206 3 8 9 12 13 9 5 -3 15 3 22 13 7 11 16
19 20 18 3 0 22 14 42 32 20 18 36 31 36 28 0 -2 23 18 50 45 28 27 54 49 58
49 4 0 14 9 22 21 18 25 90 99 96 99 8 0 144 144 144 153 0 4 5 7 10 7 13 0
50 37 50 49 0 5 9 13 20 16 11 3 20 13 20 21 0 8 6 14 14 14 8 0 18 9 21 21 4
11 17 25 31 31 13 6 20 16 17 22 -4 6 1 4 11 -4 11 -8 14 -16 7 -18 -6 -2 -11
-9 -11 -15 0 -7 -18 -36 -40 -65 -22 -29 -40 -55 -40 -58 0 -3 -9 -19 -21 -35
-11 -16 -18 -29 -14 -29 3 0 1 -6 -5 -12 -19 -23 -59 -88 -55 -88 3 0 -6 -21
-19 -47 -48 -96 -109 -256 -93 -246 8 5 8 2 0 -9 -7 -8 -10 -18 -6 -21 3 -4 1
-7 -6 -7 -7 0 -10 -4 -7 -9 3 -4 1 -23 -5 -42 -5 -19 -12 -52 -14 -74 -3 -22
-8 -56 -11 -75 -5 -32 -5 -85 -1 -147 1 -13 6 -23 11 -23 5 0 3 -6 -3 -14 -10
-11 -10 -20 -1 -36 6 -12 9 -28 6 -35 -2 -7 -2 -16 2 -19 5 -6 8 -16 16 -56 2
-8 8 -26 13 -40 6 -14 9 -28 7 -31 -2 -4 3 -12 11 -19 8 -7 15 -21 15 -31 0
-11 3 -19 8 -19 8 0 42 -73 42 -90 0 -6 4 -10 9 -10 5 0 23 -23 40 -50 31 -51
156 -181 200 -210 22 -14 80 -57 111 -83 9 -7 34 -20 56 -29 23 -9 58 -28 79
-42 21 -14 44 -26 52 -26 7 0 36 -11 62 -25 27 -13 64 -27 83 -31 18 -3 38 -7
43 -8 6 -1 15 -5 21 -8 6 -4 21 -9 35 -12 13 -3 35 -8 49 -11 14 -3 42 -7 62
-9 20 -2 42 -7 48 -11 6 -4 17 -1 25 5 9 7 15 8 15 3 0 -9 194 -11 210 -3 3 2
10 4 15 5 6 1 26 5 45 10 19 4 42 9 50 10 32 4 70 18 70 24 0 4 7 8 15 9 8 1
22 3 30 4 8 1 15 4 15 8 0 4 6 7 14 7 18 0 146 72 146 82 0 5 9 11 21 14 13 4
18 10 13 18 -4 7 -3 10 3 6 6 -4 23 10 39 31 15 20 31 39 34 42 9 7 34 53 35
63 0 4 6 11 12 15 7 4 14 17 16 29 1 12 8 28 15 36 7 8 13 26 14 41 1 14 5 26
8 26 7 0 8 13 13 90 1 30 -1 60 -6 67 -4 6 -3 14 3 18 7 4 7 12 0 25 -6 11 -9
23 -8 27 5 19 -48 108 -91 152 -40 41 -151 111 -151 94 0 -3 -6 -1 -12 5 -27
21 -184 37 -194 20 -3 -5 -9 -6 -13 -3 -5 2 -37 -5 -71 -17 -48 -16 -77 -35
-124 -79 -33 -32 -57 -61 -53 -65 4 -4 0 -18 -9 -32 -8 -13 -13 -26 -10 -29 3
-4 1 -12 -5 -19 -11 -14 -14 -108 -4 -189 3 -27 6 -56 7 -62 1 -7 5 -13 10
-13 4 0 7 -3 6 -7 -1 -5 4 -24 11 -43 8 -19 15 -44 18 -55 2 -10 9 -23 16 -27
6 -4 9 -8 5 -8 -4 0 0 -12 7 -27 24 -47 2 -58 -113 -57 -105 1 -151 5 -167 13
-5 3 -21 6 -35 7 -14 1 -38 5 -55 9 -16 3 -43 8 -60 11 -16 3 -38 13 -47 21
-9 8 -21 12 -27 9 -5 -3 -11 -2 -13 3 -1 6 -16 12 -32 15 -16 3 -36 11 -45 18
-9 8 -29 20 -45 28 -16 8 -42 27 -59 43 -16 15 -31 27 -33 27 -10 0 -118 118
-133 145 -9 17 -30 50 -46 75 -16 25 -29 52 -30 60 -1 8 -7 28 -14 43 -6 16
-11 34 -11 42 0 8 -4 16 -9 19 -8 5 -21 82 -25 146 -1 19 -4 40 -7 45 -8 13
-4 205 5 273 4 29 16 82 27 118 11 35 17 70 13 76 -4 7 -3 8 4 4 7 -4 12 -1
12 9 0 18 48 117 62 126 5 3 8 10 6 15 -2 9 19 54 31 64 3 3 13 19 22 35 27
51 43 79 58 94 7 8 18 28 23 43 6 16 13 27 16 24 4 -5 62 78 62 89 0 3 24 38
53 78 59 79 150 219 149 227 0 3 7 14 17 25 25 27 52 81 44 89 -4 3 -1 6 4 6
6 0 21 19 33 43 11 23 25 49 30 57 5 8 18 33 29 55 10 22 36 74 56 115 21 41
38 81 38 88 0 6 5 12 10 12 6 0 8 3 4 6 -3 4 2 23 12 43 19 37 50 122 57 155
2 10 8 24 14 30 5 7 7 16 3 19 -3 4 -1 12 5 20 6 7 14 32 18 55 4 23 11 45 15
48 5 3 7 9 5 13 -3 4 0 25 5 47 26 102 29 413 5 452 -4 7 -4 17 -1 22 3 6 1
10 -6 10 -7 0 -10 3 -6 6 3 3 -1 25 -10 47 -8 23 -16 49 -18 59 -5 23 -36 82
-47 89 -5 3 -9 8 -9 10 4 12 -23 69 -32 69 -7 0 -20 18 -30 39 -16 35 -126
161 -140 161 -3 0 -18 11 -32 26 -14 14 -30 22 -35 19 -6 -3 -10 -3 -10 2 0
10 -71 59 -82 56 -4 -2 -8 1 -8 6 0 8 -37 24 -52 22 -5 -1 -8 4 -8 9 0 5 -3 9
-7 8 -5 -1 -30 5 -58 15 -27 9 -62 18 -77 21 -15 3 -33 8 -39 12 -16 10 -227
11 -244 2z"/>
<path d="M5520 8645 c0 -5 19 -11 41 -13 23 -1 50 -7 60 -13 14 -7 19 -6 19 3
0 8 3 9 8 3 8 -11 20 -15 67 -20 46 -5 109 -17 116 -21 4 -2 26 -6 49 -9 24
-3 46 -8 50 -10 4 -3 25 -7 46 -10 66 -10 129 -22 129 -25 0 -1 9 -3 20 -5 11
-2 34 -6 52 -10 32 -6 37 -21 15 -47 -6 -8 -9 -18 -5 -21 3 -4 2 -7 -4 -7 -10
0 -26 -36 -24 -52 1 -5 -3 -8 -8 -8 -9 0 -26 -58 -21 -75 2 -5 4 -18 4 -27 1
-10 5 -21 9 -24 4 -4 7 -15 7 -24 0 -40 101 -128 155 -137 65 -10 155 1 155
19 0 5 4 7 8 4 14 -8 106 68 121 99 8 17 17 32 21 35 27 18 32 147 10 218 -24
76 -124 161 -210 179 -49 11 -890 8 -890 -2z"/>
<path d="M5148 8605 c-15 -14 -31 -25 -35 -25 -5 0 -26 -12 -48 -27 -22 -15
-86 -51 -142 -80 -56 -28 -113 -58 -125 -65 -13 -6 -32 -13 -42 -15 -11 -2
-25 -8 -31 -13 -7 -5 -15 -7 -18 -3 -4 3 -7 2 -7 -4 0 -5 -6 -10 -12 -11 -20
-1 -57 -10 -97 -24 -20 -6 -43 -13 -51 -14 -8 -2 -28 -6 -45 -9 -16 -4 -42 -7
-57 -7 -16 0 -28 -4 -28 -8 0 -5 -23 -8 -51 -6 -28 1 -52 -1 -54 -4 -4 -7 -79
-5 -185 4 -57 4 -78 -7 -58 -31 6 -7 6 -13 2 -13 -5 0 -9 -36 -9 -80 0 -44 3
-80 6 -80 3 0 6 -141 8 -312 6 -904 9 -1283 12 -1283 1 0 3 -189 4 -419 l2
-419 23 -19 c12 -10 25 -16 29 -14 4 3 18 -4 31 -15 l25 -20 -40 4 c-22 3 -50
7 -63 10 -26 7 -31 0 -35 -60 l-3 -42 74 4 c41 3 80 1 86 -2 6 -4 27 -7 46 -8
19 0 40 -3 45 -6 6 -3 24 -9 40 -13 60 -15 160 -72 217 -124 54 -51 68 -69
100 -132 6 -14 20 -37 30 -51 9 -14 15 -29 12 -31 -2 -3 1 -18 7 -34 30 -74
30 -301 1 -389 -18 -53 -63 -150 -79 -167 -9 -10 -13 -18 -9 -18 3 0 -6 -14
-21 -31 -16 -17 -27 -35 -26 -40 2 -5 -1 -8 -6 -6 -5 1 -31 -19 -59 -45 -28
-27 -55 -48 -61 -48 -6 0 -11 -3 -11 -7 0 -5 -23 -19 -50 -32 -28 -14 -50 -28
-50 -31 0 -4 -6 -7 -12 -7 -7 -1 -38 -10 -69 -22 -31 -11 -67 -22 -80 -25 -13
-2 -45 -9 -70 -16 -43 -11 -46 -14 -45 -43 1 -18 -3 -35 -8 -39 -7 -5 -6 -8 3
-8 9 0 10 -4 4 -12 -13 -16 -13 -48 -1 -48 5 0 6 -5 3 -10 -10 -16 5 -49 19
-44 7 3 20 -1 28 -10 12 -11 15 -45 14 -165 -1 -83 2 -151 5 -151 4 0 5 -13 4
-30 -1 -17 2 -30 7 -30 7 0 7 -4 1 -12 -13 -16 -13 -48 0 -48 6 0 6 -5 0 -12
-13 -16 -13 -48 0 -48 6 0 6 -5 0 -12 -13 -16 -13 -48 0 -48 6 0 6 -5 0 -12
-13 -16 -13 -48 0 -48 6 0 6 -5 0 -12 -13 -16 -13 -48 0 -48 6 0 6 -5 0 -12
-5 -7 -7 -58 -5 -113 1 -55 4 -157 6 -228 2 -70 6 -131 10 -134 10 -11 269
-10 284 0 6 5 12 6 12 1 0 -11 210 -11 228 -1 6 5 12 5 12 0 0 -10 211 -10
228 0 6 5 12 4 12 0 0 -5 45 -8 101 -7 75 0 103 4 109 14 5 9 5 17 -2 21 -7 4
-7 9 0 13 10 6 8 73 -1 83 -3 2 -11 5 -19 7 -7 1 -19 5 -26 10 -7 4 -16 5 -19
2 -3 -3 -11 -2 -17 3 -6 5 -24 11 -41 14 -28 5 -42 9 -82 23 -10 4 -25 8 -33
10 -62 13 -77 16 -90 21 -8 4 -21 5 -27 4 -7 -1 -13 3 -13 9 0 5 -3 9 -7 8
-15 -4 -88 14 -100 24 -7 6 -13 8 -13 5 0 -3 -17 -1 -37 5 -21 5 -53 13 -72
16 -19 4 -39 15 -45 24 -9 14 -3 25 29 58 21 22 36 40 32 40 -3 0 4 10 16 23
12 13 29 34 37 46 8 13 20 29 27 36 7 7 9 15 6 19 -4 3 -1 6 5 6 7 0 12 5 12
11 0 6 8 23 19 37 10 15 24 44 32 65 7 20 16 37 20 37 3 0 16 24 28 52 12 29
26 62 31 73 5 11 11 27 12 35 2 8 5 17 8 20 4 4 34 83 44 115 2 6 8 21 13 35
6 14 9 28 6 33 -2 4 1 7 7 7 6 0 8 5 5 10 -4 6 -2 16 3 23 5 7 8 20 7 30 -2 9
0 17 4 17 4 0 8 7 9 15 1 8 3 22 4 30 1 8 5 15 10 15 5 0 7 4 4 9 -3 5 1 29 8
55 8 25 12 46 10 46 -2 0 1 12 7 28 6 15 13 41 16 57 2 17 11 59 19 95 17 74
26 125 28 157 1 12 5 25 8 28 4 4 4 13 1 21 -3 8 -2 22 2 32 11 23 17 63 29
167 2 17 5 30 6 30 1 0 3 22 5 50 2 27 7 65 11 85 4 19 8 49 9 65 3 30 10 105
20 200 3 28 7 66 8 85 1 19 4 40 7 45 4 6 6 36 5 67 0 32 2 58 5 58 3 0 6 35
6 78 2 79 9 230 19 362 5 85 11 233 19 500 9 309 12 2250 3 2250 -5 0 -5 5 -2
10 10 16 1 12 -27 -15z"/>
<path d="M5339 8577 c0 -6 -2 -20 -4 -29 -2 -10 1 -18 6 -18 6 0 7 -6 2 -12
-10 -17 -10 -179 0 -175 5 1 9 7 10 12 5 31 120 140 137 130 6 -4 10 -1 10 6
0 7 3 9 7 6 3 -4 13 -1 21 6 13 10 14 9 8 -1 -7 -11 -4 -12 13 -3 11 7 21 9
21 5 0 -3 6 -2 13 4 6 6 29 9 50 8 25 -2 35 0 28 7 -6 6 -20 11 -33 11 -13 1
-29 6 -37 11 -10 5 -16 4 -19 -4 -3 -8 -8 -9 -17 -1 -7 6 -24 13 -36 16 -48 9
-95 16 -112 15 -10 0 -30 4 -43 9 -17 7 -24 6 -25 -3z"/>
<path d="M7043 8577 c-11 -17 -10 -41 2 -49 6 -5 5 -8 -3 -8 -9 0 -10 -5 -4
-17 5 -10 9 -90 8 -178 -1 -88 1 -164 4 -170 7 -13 8 -175 1 -175 -3 0 -7 -62
-8 -138 -3 -204 -7 -302 -13 -302 -3 0 -6 -17 -7 -38 0 -20 -4 -62 -7 -92 -3
-30 -7 -80 -9 -110 -3 -30 -7 -62 -10 -70 -4 -8 -9 -35 -11 -60 -3 -25 -7 -54
-9 -65 -3 -11 -8 -40 -11 -65 -3 -25 -8 -54 -10 -65 -14 -73 -19 -111 -18
-118 1 -5 -3 -27 -9 -50 -7 -23 -12 -48 -12 -54 0 -7 -4 -13 -8 -13 -5 0 -6
-6 -3 -14 3 -8 0 -17 -5 -21 -6 -3 -9 -11 -6 -16 4 -5 3 -14 -1 -21 -5 -7 -9
-26 -10 -43 -1 -16 -11 -56 -23 -88 -11 -32 -20 -62 -19 -65 1 -4 -2 -14 -5
-22 -20 -45 -35 -99 -30 -104 4 -3 1 -6 -5 -6 -6 0 -9 -7 -5 -15 3 -9 -2 -24
-11 -34 -9 -10 -13 -21 -9 -24 3 -4 1 -7 -4 -7 -6 0 -10 -8 -9 -17 2 -9 -4
-30 -13 -47 -8 -17 -17 -40 -18 -51 -2 -11 -12 -38 -23 -60 -10 -22 -22 -52
-25 -67 -4 -16 -11 -28 -16 -28 -5 0 -8 -3 -7 -7 1 -5 -4 -21 -11 -38 -7 -16
-12 -32 -11 -34 1 -2 -3 -7 -8 -10 -6 -4 -12 -19 -14 -34 -2 -15 -11 -36 -21
-47 -9 -10 -28 -49 -43 -86 -38 -95 -95 -203 -128 -241 -11 -13 -16 -23 -11
-23 4 0 0 -9 -10 -20 -10 -11 -14 -20 -9 -20 5 0 4 -4 -3 -8 -6 -4 -13 -14
-15 -21 -2 -8 -9 -21 -16 -30 -18 -22 -182 -272 -182 -277 0 -5 -14 -22 -40
-51 -8 -9 -14 -18 -12 -20 1 -2 -2 -11 -7 -21 -6 -9 -11 -13 -11 -8 0 5 -13
-10 -29 -35 -16 -24 -39 -54 -50 -66 -12 -12 -21 -26 -21 -32 0 -5 -3 -11 -8
-13 -6 -3 -66 -75 -97 -116 -5 -8 -25 -29 -44 -48 -19 -19 -31 -34 -27 -34 3
0 -2 -8 -11 -18 -10 -10 -61 -65 -113 -121 -52 -57 -133 -142 -180 -189 -47
-46 -84 -89 -83 -93 2 -5 -3 -9 -11 -9 -7 0 -32 -20 -55 -45 -45 -48 -56 -73
-16 -34 39 38 62 57 84 69 12 6 21 18 21 26 0 8 4 12 10 9 5 -3 25 9 44 27 19
18 55 51 81 73 26 22 61 54 79 72 19 18 36 30 39 27 3 -3 11 5 18 18 7 12 39
48 72 78 33 30 72 68 86 84 14 16 47 49 74 74 26 25 47 52 47 59 0 8 3 12 8
10 4 -3 23 15 42 40 19 25 61 72 93 106 31 33 57 62 57 65 0 4 33 48 63 82 33
39 96 120 127 165 19 28 41 55 50 62 8 7 11 13 5 13 -6 0 -6 3 1 8 5 4 21 25
34 47 13 22 26 42 29 45 4 3 28 39 54 80 27 41 73 113 104 160 85 132 175 290
165 290 -4 0 -2 4 3 8 6 4 18 23 27 42 9 19 38 79 63 132 26 53 46 100 45 104
-1 4 4 10 12 15 7 5 13 12 14 16 0 4 6 21 13 37 6 16 13 37 14 46 2 10 9 26
17 36 8 9 14 20 13 23 0 3 6 22 15 41 8 19 16 38 17 43 2 4 3 8 5 10 1 1 3 13
4 25 2 13 7 27 13 30 10 7 28 61 24 76 -1 4 5 19 14 33 16 23 26 53 27 81 1 6
5 12 10 12 5 0 6 5 3 10 -4 6 -1 17 5 25 7 8 9 15 4 15 -5 0 -4 4 2 8 7 4 14
23 17 43 2 20 8 43 13 50 5 8 10 24 12 36 1 12 12 51 23 85 11 35 22 81 25
103 5 46 7 60 28 135 8 30 12 58 10 62 -3 5 -2 13 2 20 4 7 9 21 10 32 1 12 4
53 8 91 11 125 15 155 21 165 3 6 1 10 -6 10 -8 0 -8 4 -2 13 13 15 13 47 0
47 -6 0 -6 5 0 13 13 15 13 47 1 47 -5 0 -6 6 -1 13 10 17 10 107 -1 107 -5 0
-3 6 3 14 9 11 10 20 1 35 -6 12 -9 33 -7 48 2 16 -1 48 -8 73 -11 39 -14 63
-18 118 0 6 -4 12 -7 12 -4 0 -11 19 -15 43 -5 23 -9 44 -10 47 -1 3 -7 18
-13 33 -7 16 -12 33 -12 38 0 5 -4 9 -10 9 -5 0 -9 3 -8 8 2 12 -26 66 -52 97
-80 96 -161 157 -177 132z"/>
<path d="M5648 8378 c-17 -6 -29 -17 -29 -29 -2 -30 -4 -37 -9 -42 -4 -5 -3
-3630 2 -3666 2 -16 107 92 109 112 6 74 2 3577 -4 3593 -13 31 -38 42 -69 32z"/>
<path d="M5910 8370 c-11 -11 -20 -28 -21 -37 -5 -109 -2 -3396 4 -3400 4 -2
7 1 7 7 0 6 5 8 10 5 6 -3 10 2 10 11 0 10 3 14 7 11 6 -7 16 9 56 88 20 40
21 52 22 1655 0 1006 -3 1622 -9 1635 -23 48 -54 57 -86 25z"/>
<path d="M5340 8230 c-8 -14 -8 -20 0 -20 6 0 8 -5 4 -12 -11 -17 -11 -308 -1
-308 5 0 5 -6 1 -12 -11 -17 -11 -308 -1 -308 5 0 5 -6 1 -12 -11 -17 -11
-308 -1 -308 5 0 5 -6 1 -12 -11 -17 -11 -308 -1 -308 5 0 5 -6 1 -12 -11 -17
-11 -308 -1 -308 5 0 5 -6 1 -12 -11 -17 -11 -308 -1 -308 5 0 5 -6 1 -12 -11
-17 -11 -308 -1 -308 5 0 5 -6 1 -12 -11 -17 -11 -308 -1 -308 5 0 5 -6 1 -12
-11 -17 -11 -308 -1 -308 5 0 5 -6 1 -12 -11 -17 -11 -308 -1 -308 5 0 5 -6 1
-12 -11 -18 -11 -240 -1 -255 5 -7 6 -13 1 -13 -5 0 -9 -45 -9 -100 0 -55 4
-100 8 -100 5 0 5 -6 1 -12 -5 -7 -8 -47 -9 -90 0 -84 -5 -81 58 -31 15 12 27
25 26 29 0 4 5 10 12 15 16 9 19 139 4 139 -7 0 -7 3 0 8 6 4 10 30 10 57 0
28 -4 53 -10 57 -7 5 -7 8 0 8 6 0 10 45 10 115 0 63 -4 115 -8 115 -5 0 -5 6
0 13 11 18 10 101 -2 109 -7 5 -7 8 0 8 7 0 10 34 8 93 -4 114 -4 103 0 160 2
26 0 50 -5 53 -5 3 -5 10 -2 16 10 16 11 188 1 188 -4 0 -5 6 0 13 11 18 10
101 -2 109 -7 5 -7 8 0 8 7 0 10 34 8 93 -4 114 -4 103 0 160 2 26 0 50 -5 53
-5 3 -5 10 -2 16 10 16 11 188 1 188 -4 0 -5 6 0 13 11 18 10 101 -2 109 -7 5
-7 8 0 8 7 0 10 34 8 93 -4 114 -4 103 0 160 2 26 0 50 -5 53 -5 3 -5 10 -2
16 10 16 11 188 1 188 -4 0 -5 6 0 13 11 18 10 101 -2 109 -7 5 -7 8 0 8 7 0
10 34 8 93 -4 114 -4 103 0 160 2 26 0 50 -5 53 -5 3 -5 10 -2 16 10 16 11
188 1 188 -4 0 -5 6 0 13 11 18 10 101 -2 109 -7 5 -7 8 0 8 7 0 10 34 8 93
-4 114 -4 103 0 160 2 26 0 50 -5 53 -5 3 -5 10 -2 16 11 17 11 188 1 188 -5
0 -5 6 0 13 12 13 10 29 -6 70 -9 22 -17 27 -45 27 -25 0 -38 -6 -46 -20z"/>
<path d="M7717 7533 c-4 -7 -11 -34 -21 -88 -8 -38 -28 -120 -33 -135 -3 -8
-7 -27 -9 -42 -1 -14 -7 -36 -14 -47 -6 -12 -8 -21 -5 -21 3 0 -1 -15 -9 -34
-8 -19 -12 -37 -9 -39 2 -3 -1 -15 -7 -27 -6 -12 -14 -31 -16 -43 -3 -12 -8
-33 -11 -47 -3 -14 -5 -32 -6 -40 0 -8 -3 -17 -7 -20 -4 -3 -17 -34 -28 -70
-19 -62 -75 -218 -89 -250 -3 -8 -5 -19 -4 -23 0 -4 -7 -22 -16 -40 -9 -18
-16 -37 -15 -43 1 -6 -16 -50 -38 -97 -22 -48 -40 -91 -40 -97 0 -14 -51 -119
-61 -126 -5 -3 -9 -14 -9 -26 0 -11 -8 -32 -18 -46 -27 -40 -62 -111 -62 -126
0 -8 -4 -16 -10 -18 -5 -1 -11 -13 -13 -25 -2 -12 -10 -30 -19 -40 -13 -16
-31 -54 -28 -61 2 -6 -36 -68 -50 -79 -8 -7 -10 -13 -5 -13 7 0 7 -3 0 -8 -14
-10 -71 -105 -80 -131 -3 -12 -11 -21 -16 -21 -6 0 -8 -4 -5 -9 6 -8 -31 -63
-46 -69 -5 -2 -8 -10 -8 -18 0 -8 -4 -14 -8 -14 -4 0 -16 -20 -26 -45 -11 -25
-23 -45 -28 -45 -5 0 -19 -17 -31 -37 -12 -21 -20 -38 -17 -38 2 0 -7 -12 -20
-26 -14 -14 -52 -65 -85 -113 -33 -49 -69 -98 -80 -110 -41 -43 -115 -138
-115 -148 0 -5 -4 -6 -10 -3 -5 3 -10 2 -10 -4 0 -6 -18 -29 -40 -52 -22 -23
-40 -46 -40 -51 0 -4 -7 -8 -15 -8 -8 0 -15 -5 -15 -11 0 -5 -22 -32 -49 -60
-26 -27 -47 -49 -46 -49 1 0 -18 -20 -43 -45 -24 -25 -47 -45 -50 -45 -3 0
-31 -26 -62 -57 -31 -32 -65 -63 -76 -69 -10 -6 -25 -22 -31 -35 -7 -13 -13
-19 -13 -14 0 6 -7 1 -15 -9 -8 -11 -15 -16 -15 -12 0 4 -7 1 -15 -6 -8 -7
-26 -22 -41 -33 -14 -11 -34 -27 -43 -35 -9 -8 -36 -28 -59 -44 -23 -16 -42
-33 -42 -38 0 -5 -3 -7 -7 -5 -5 3 -24 -8 -43 -25 -21 -18 -27 -26 -15 -22 11
4 26 14 32 22 7 9 22 17 34 19 11 2 27 10 36 18 8 9 31 24 52 34 20 11 45 28
56 38 12 10 27 19 35 21 8 2 20 10 26 18 6 7 15 14 21 14 5 0 19 9 31 20 12
12 22 18 22 14 0 -4 10 2 23 12 12 11 47 36 77 54 30 19 64 43 76 54 12 10 24
18 27 18 4 -1 15 5 25 14 16 14 185 142 252 191 34 24 193 158 238 201 7 6 18
12 23 12 6 0 7 4 4 10 -3 6 0 10 7 10 8 0 20 8 29 18 8 9 40 40 70 67 30 28
94 91 141 141 48 51 89 89 92 86 3 -3 6 0 6 6 0 7 0 14 1 16 0 3 19 24 42 48
60 62 111 125 189 231 37 51 72 97 78 104 5 7 10 14 10 17 0 2 22 41 50 85 27
45 47 81 43 81 -3 0 0 7 7 15 26 31 106 189 114 224 9 39 19 61 27 61 5 0 9 6
9 14 0 7 7 26 14 42 8 15 13 31 10 36 -3 4 0 8 5 8 6 0 10 3 10 8 -1 4 -1 9 1
12 1 3 3 16 5 30 5 40 9 55 17 60 4 3 8 20 10 38 1 18 5 32 8 32 4 0 7 6 8 13
0 6 3 23 7 37 8 31 15 77 18 108 0 12 3 22 7 22 3 0 6 15 7 33 8 135 8 159 1
163 -5 3 -5 10 -2 16 10 17 12 98 2 104 -5 3 -5 10 -2 16 9 14 12 108 4 108
-3 0 -7 12 -8 28 -3 46 -9 86 -15 102 -4 8 -8 26 -9 40 -2 14 -7 31 -11 38 -5
6 -6 12 -3 12 3 0 -1 18 -9 40 -8 22 -14 43 -14 46 1 5 -17 55 -34 94 -6 14
-10 28 -9 33 1 4 0 7 -2 7 -3 0 -7 -3 -9 -7z"/>
<path d="M3517 6620 c-9 -22 -17 -45 -17 -50 0 -6 -10 -32 -23 -58 l-23 -47 1
-884 1 -884 25 -11 c54 -27 62 -18 63 67 1 42 -3 77 -8 77 -5 0 -4 6 1 13 13
15 13 47 0 47 -6 0 -6 5 0 13 13 15 13 47 0 47 -6 0 -6 5 0 13 13 15 13 47 0
47 -6 0 -6 5 0 13 13 15 13 47 0 47 -6 0 -6 5 0 13 13 15 13 47 0 47 -6 0 -6
5 0 13 13 15 13 47 0 47 -6 0 -6 5 0 13 6 6 8 41 5 77 -3 36 -4 106 -4 155 2
283 2 360 -2 455 -2 58 1 113 6 123 6 11 5 17 -2 17 -6 0 -8 5 -3 13 10 17 10
107 -1 107 -5 0 -3 6 3 14 8 10 9 21 3 33 -5 10 -9 116 -8 241 0 122 1 222 1
222 0 0 -8 -18 -18 -40z"/>
<path d="M8372 6294 c-7 -8 -10 -14 -7 -14 4 0 -3 -12 -14 -26 -12 -15 -21
-35 -21 -45 0 -11 -4 -19 -8 -19 -5 0 -17 -18 -27 -40 -10 -22 -22 -40 -26
-40 -5 0 -11 -11 -15 -25 -3 -13 -12 -29 -20 -36 -8 -6 -14 -19 -14 -29 0 -9
-13 -33 -30 -51 -16 -19 -30 -39 -30 -45 0 -6 -11 -24 -25 -40 -14 -16 -25
-34 -25 -40 0 -6 -13 -26 -30 -44 -16 -18 -30 -40 -30 -47 0 -8 -7 -16 -15
-19 -8 -4 -12 -10 -9 -15 3 -5 0 -9 -5 -9 -6 0 -17 -15 -25 -32 -7 -18 -25
-46 -39 -63 -15 -16 -33 -37 -41 -47 -8 -9 -12 -19 -9 -22 4 -3 1 -6 -5 -6 -7
0 -11 -5 -9 -10 1 -6 -11 -25 -26 -43 -67 -77 -108 -130 -104 -134 3 -2 -16
-25 -42 -51 -51 -52 -103 -113 -141 -166 -14 -20 -29 -36 -35 -36 -5 0 -19
-14 -30 -30 -11 -16 -23 -30 -27 -30 -5 0 -8 -5 -8 -11 0 -11 -125 -136 -240
-239 -33 -30 -76 -69 -94 -87 -18 -18 -36 -30 -39 -27 -3 3 -29 -17 -58 -45
-29 -28 -55 -51 -57 -51 -2 0 -17 -13 -34 -30 -16 -16 -33 -30 -37 -30 -4 0
-16 -8 -27 -18 -30 -28 -117 -88 -136 -95 -10 -4 -18 -11 -18 -17 0 -6 -5 -8
-10 -5 -6 3 -13 -1 -16 -9 -3 -9 -15 -16 -25 -16 -10 0 -19 -4 -19 -8 0 -5
-21 -21 -47 -36 -113 -64 -138 -80 -144 -88 -3 -5 -9 -9 -13 -9 -9 2 -79 -29
-86 -37 -6 -9 -80 -45 -99 -48 -8 -1 -18 -9 -22 -16 -5 -7 -9 -9 -9 -4 0 5 -6
3 -13 -3 -8 -6 -24 -12 -36 -14 -13 -2 -26 -9 -30 -16 -5 -7 -10 -12 -12 -10
-8 4 -49 -13 -45 -19 2 -4 -7 -8 -21 -9 -14 0 -35 -6 -47 -11 -22 -11 -117
-47 -149 -56 -10 -3 -16 -10 -12 -15 3 -6 23 -5 50 3 24 8 46 11 49 8 4 -3 6
-1 6 4 0 6 11 11 25 12 45 3 55 5 55 12 0 3 8 6 18 7 27 2 64 10 102 22 19 6
51 14 70 17 19 3 37 9 40 13 3 3 12 8 20 9 8 2 23 6 33 8 9 2 26 6 38 9 12 2
26 9 33 14 6 5 14 10 19 10 4 1 8 1 10 2 1 0 10 2 20 5 35 8 41 10 95 31 9 3
19 7 22 8 20 5 121 40 145 50 17 7 66 27 110 44 96 38 101 40 190 82 39 18 76
32 83 30 6 -1 12 2 12 7 0 7 44 33 60 34 22 3 308 173 347 208 7 5 14 10 17
10 3 0 16 10 30 23 37 34 54 47 63 47 4 0 21 14 37 30 16 17 35 30 41 30 7 0
24 14 39 32 14 17 26 29 26 25 0 -7 32 24 71 69 28 31 68 62 74 56 3 -3 5 -1
5 5 0 6 18 33 40 61 22 27 40 53 40 56 0 4 18 26 40 48 22 23 40 46 40 51 0 5
15 30 33 56 34 47 51 80 49 94 -1 4 2 7 7 7 6 0 60 106 66 130 0 3 6 14 12 25
18 34 62 141 67 166 3 13 8 37 11 53 3 16 10 36 14 45 5 9 7 24 6 34 -2 9 0
17 4 17 4 0 7 17 6 38 -1 20 3 43 8 49 5 7 10 36 12 65 1 29 4 53 5 53 1 0 3
67 3 149 2 152 -5 189 -31 160z"/>
<path d="M3240 6245 c-2 -5 -2 -13 -1 -17 0 -5 -3 -8 -8 -8 -5 0 -12 -10 -16
-22 -4 -13 -8 -25 -9 -28 -1 -3 -10 -21 -21 -40 -17 -33 -18 -70 -19 -665 -1
-346 1 -640 3 -652 3 -21 66 -61 78 -49 8 8 9 1453 1 1474 -4 9 -7 13 -8 7z"/>
<path d="M2500 5830 c-9 -6 -10 -10 -3 -10 6 0 15 5 18 10 8 12 4 12 -15 0z"/>
<path d="M8598 4957 c-7 -7 -42 -39 -78 -71 -36 -32 -63 -64 -62 -70 2 -6 1
-8 -3 -4 -7 6 -32 -11 -66 -46 -11 -11 -19 -17 -19 -13 0 4 -13 -7 -29 -23
-15 -17 -33 -30 -40 -30 -6 0 -11 -4 -11 -10 0 -5 -7 -10 -16 -10 -8 0 -12 -4
-9 -10 3 -5 2 -10 -2 -10 -5 0 -19 -10 -33 -23 -14 -12 -54 -45 -90 -72 -36
-27 -66 -53 -68 -57 -2 -4 -8 -8 -13 -8 -9 0 -75 -48 -139 -101 -14 -11 -39
-27 -56 -34 -17 -8 -36 -21 -44 -29 -7 -9 -18 -16 -26 -16 -7 0 -18 -8 -23
-17 -6 -10 -11 -14 -11 -10 0 4 -15 -3 -32 -16 -18 -14 -55 -37 -83 -51 -72
-39 -88 -49 -102 -66 -7 -8 -13 -11 -13 -6 0 5 -9 1 -20 -9 -11 -10 -20 -14
-20 -9 0 5 -4 4 -8 -1 -6 -9 -198 -109 -212 -111 -3 0 -35 -15 -73 -32 -37
-18 -72 -32 -77 -32 -6 0 -10 -5 -10 -12 0 -6 -3 -9 -6 -6 -3 4 -22 -1 -42 -9
-64 -27 -165 -64 -232 -84 -36 -11 -74 -24 -85 -29 -44 -18 -88 -29 -96 -24
-5 3 -9 1 -9 -5 0 -5 -8 -8 -17 -6 -10 1 -26 -2 -36 -7 -10 -5 -30 -11 -45
-13 -15 -3 -54 -11 -87 -19 -33 -9 -78 -18 -100 -21 -22 -4 -51 -8 -65 -11
-14 -3 -36 -6 -50 -7 -14 -1 -31 -6 -37 -10 -8 -5 -13 -3 -13 5 0 8 -3 9 -8 3
-4 -5 -16 -11 -27 -12 -34 -2 -59 -8 -72 -16 -7 -5 -13 -4 -13 1 0 5 -12 7
-27 5 -16 -3 -59 -6 -98 -8 -38 -2 -76 -4 -82 -4 -7 -1 -13 -5 -13 -9 0 -5 6
-9 13 -10 110 -9 176 -13 297 -15 80 -1 150 -6 157 -10 6 -4 14 -4 17 1 3 5
75 8 161 8 86 -1 159 2 160 5 2 3 31 5 65 5 33 -1 60 1 60 4 0 3 17 6 38 7 34
1 85 7 167 20 17 2 44 6 60 8 17 2 30 4 30 5 0 2 33 8 75 14 19 3 49 8 65 12
17 3 36 7 43 7 6 0 12 3 12 7 0 4 6 7 13 8 30 2 64 9 72 14 10 5 52 17 67 18
20 1 184 64 189 72 3 6 9 9 13 7 10 -3 76 23 76 31 0 3 9 6 20 7 11 1 33 10
48 20 15 10 45 27 67 38 22 11 42 22 45 25 9 9 44 30 68 40 12 5 22 15 22 21
0 7 3 9 7 6 3 -4 17 3 30 15 13 12 23 19 23 15 0 -8 72 56 158 139 39 39 74
69 76 67 2 -2 11 11 19 29 9 18 17 29 17 25 0 -4 21 20 48 55 57 77 84 118 77
118 -3 0 6 12 20 27 14 15 25 33 25 39 0 6 14 37 30 68 17 31 27 56 23 56 -5
0 -1 5 7 10 8 5 15 15 15 23 0 7 9 33 19 58 42 100 58 150 51 157 -3 3 0 11 6
19 15 17 -5 18 -23 0z"/>
<path d="M2515 4620 c3 -5 11 -10 16 -10 6 0 7 5 4 10 -3 6 -11 10 -16 10 -6
0 -7 -4 -4 -10z"/>
<path d="M5629 4163 c-13 -16 -12 -17 4 -4 16 13 21 21 13 21 -2 0 -10 -8 -17
-17z"/>
<path d="M5316 4113 c-6 -14 -5 -15 5 -6 7 7 10 15 7 18 -3 3 -9 -2 -12 -12z"/>
<path d="M5840 3954 l-25 -15 25 7 c28 7 35 12 29 18 -2 2 -15 -2 -29 -10z"/>
<path d="M5135 3420 c144 -162 278 -282 385 -342 30 -18 57 -35 58 -40 2 -4
12 -8 23 -8 10 0 19 -3 19 -8 0 -9 111 -58 122 -54 5 1 8 -2 8 -7 0 -8 49 -24
65 -22 3 1 18 -5 34 -13 28 -15 167 -56 206 -61 11 -1 20 -3 20 -5 0 -1 9 -3
20 -4 11 -2 36 -6 55 -11 41 -10 65 -13 140 -18 30 -3 55 -5 55 -7 0 -1 15 -3
33 -4 17 -1 32 2 32 7 0 6 5 6 13 0 14 -11 57 -11 75 0 6 5 12 4 12 -1 0 -8
25 -9 55 -2 9 2 -42 18 -75 23 -8 1 -31 8 -50 14 -19 7 -46 14 -60 17 -121 23
-382 101 -440 131 -14 7 -31 10 -37 8 -8 -3 -13 4 -13 17 0 17 4 21 17 16 15
-6 63 -15 108 -21 11 -1 20 -3 20 -5 0 -3 48 -10 83 -12 17 -1 32 -4 32 -7 0
-3 12 -7 28 -7 15 -1 41 -4 57 -8 31 -6 103 -16 165 -22 19 -1 53 -5 75 -9 62
-9 132 -14 235 -17 52 -2 101 -7 108 -11 7 -5 12 -4 12 3 0 6 5 8 12 4 10 -7
217 -9 236 -3 4 1 30 3 57 5 65 3 172 13 210 20 17 3 41 7 55 9 65 11 95 17
118 26 14 5 27 8 29 5 3 -2 20 2 39 10 19 8 35 14 36 13 6 -3 115 31 154 48
21 9 42 16 46 15 4 -1 29 9 55 22 26 14 50 23 54 20 4 -2 12 3 19 11 7 8 20
15 29 15 9 0 21 4 27 9 5 5 43 27 84 49 109 57 140 76 140 85 0 4 7 7 15 7 8
0 15 4 15 10 0 10 -27 3 -47 -13 -7 -5 -13 -7 -13 -4 0 4 -18 0 -41 -8 -23 -8
-45 -12 -50 -9 -5 3 -9 1 -9 -3 0 -5 -8 -9 -17 -10 -19 -1 -58 -10 -58 -13 0
-2 -23 -7 -65 -14 -14 -2 -25 -5 -25 -6 0 -3 -38 -11 -70 -15 -16 -2 -30 -4
-30 -5 0 -3 -39 -10 -75 -15 -19 -2 -35 -4 -35 -5 0 -7 -166 -26 -380 -45 -99
-9 -552 -10 -665 -1 -181 13 -205 15 -245 21 -22 3 -60 7 -85 9 -25 2 -61 7
-80 10 -19 3 -51 7 -70 10 -19 2 -51 7 -70 10 -19 3 -51 8 -70 11 -19 3 -44 7
-55 9 -11 3 -33 7 -50 10 -16 3 -41 8 -55 12 -14 3 -35 6 -47 5 -12 0 -25 4
-28 9 -4 6 -10 8 -14 6 -4 -3 -34 2 -67 11 -32 8 -68 17 -79 18 -11 2 -30 6
-42 9 -13 3 -31 8 -40 10 -10 3 -33 10 -52 15 -19 6 -38 8 -42 5 -5 -3 -9 0
-9 6 0 6 -4 9 -9 6 -5 -4 -22 -1 -38 5 -15 7 -37 14 -48 16 -11 2 -27 6 -35
10 -8 3 -19 7 -25 7 -24 4 -148 42 -200 62 -16 6 -14 1 10 -26z"/>
<path d="M1425 2749 c-43 -4 -81 -11 -83 -17 -4 -12 -52 -3 -52 11 0 8 -3 8
-11 0 -11 -11 -19 -152 -8 -159 10 -6 30 21 22 29 -3 4 -1 7 5 7 7 0 12 6 12
13 1 12 60 96 60 84 0 -3 12 0 26 8 36 18 85 9 111 -22 18 -22 21 -36 18 -81
-5 -65 -22 -86 -80 -96 -5 -1 -16 -6 -24 -10 -10 -6 -12 -5 -7 2 5 8 2 10 -8
6 -30 -12 -16 -29 21 -28 21 0 50 -5 66 -13 15 -7 27 -10 27 -6 0 5 6 -3 13
-17 8 -14 14 -47 14 -73 1 -40 -4 -52 -32 -83 -19 -20 -38 -33 -44 -29 -6 3
-11 2 -11 -3 0 -14 -98 -5 -113 10 -14 14 -16 32 -4 44 4 4 7 19 7 33 0 31
-34 56 -70 52 -32 -3 -48 -20 -50 -51 -3 -38 -1 -54 7 -47 3 4 13 -2 21 -14
14 -20 50 -39 87 -45 64 -10 85 -10 85 -1 0 6 5 6 13 0 28 -21 197 27 197 56
0 6 6 11 14 11 27 0 39 79 19 121 -13 28 -87 71 -107 63 -27 -10 -11 26 15 37
88 36 112 124 46 171 -17 13 -36 24 -42 25 -5 1 -26 6 -45 10 -19 5 -71 6
-115 2z"/>
<path d="M2596 2752 c-2 -1 -12 -4 -22 -6 -29 -6 -124 -49 -119 -54 2 -3 -6
-13 -18 -22 -44 -35 -71 -105 -70 -181 1 -39 6 -76 12 -83 6 -7 9 -15 6 -18
-9 -9 80 -95 115 -110 52 -24 112 -39 104 -26 -4 7 0 7 12 1 36 -18 164 13
164 39 0 5 4 7 9 4 12 -8 43 29 34 39 -5 4 -3 5 3 2 7 -4 19 4 28 18 27 41 -4
31 -47 -15 -59 -63 -114 -79 -187 -55 -37 12 -94 56 -89 68 3 6 -26 93 -34
105 -6 7 -6 12 0 12 5 0 9 25 8 55 -1 30 2 55 7 55 5 0 7 4 4 8 -18 29 48 132
89 141 26 6 86 6 105 0 24 -7 89 -78 96 -104 3 -14 10 -22 15 -19 5 3 6 -1 3
-9 -3 -8 -1 -18 5 -22 12 -7 12 -4 14 95 l1 65 -29 -2 c-17 -2 -45 2 -64 9
-31 9 -148 18 -155 10z"/>
<path d="M6514 2745 c-27 -6 -60 -17 -74 -25 -37 -20 -110 -91 -104 -101 3 -5
1 -9 -4 -9 -5 0 -9 -6 -10 -12 -1 -7 -5 -31 -10 -53 -26 -122 27 -223 144
-275 46 -20 176 -34 190 -21 3 3 9 6 12 7 43 4 141 86 139 115 -1 18 -3 17
-23 -3 -12 -13 -20 -26 -18 -29 6 -11 -112 -69 -140 -69 -14 0 -34 4 -44 9 -9
5 -31 15 -48 22 -26 10 -53 48 -60 82 -1 4 -2 8 -4 10 -11 13 -21 187 -11 187
3 0 7 12 8 26 2 46 51 115 85 120 5 1 11 3 16 4 16 7 82 5 82 -2 0 -4 6 -5 14
-2 7 3 16 -2 19 -10 4 -9 12 -16 19 -16 13 0 21 -12 55 -82 30 -63 34 -56 37
60 l1 63 -38 -6 c-24 -5 -43 -2 -52 5 -8 7 -15 10 -15 7 0 -3 -13 -2 -30 3
-21 6 -30 5 -30 -3 0 -8 -3 -8 -8 -2 -10 13 -39 13 -98 0z"/>
<path d="M7901 2748 c-25 -9 -78 -48 -66 -48 4 0 2 -6 -4 -13 -6 -8 -8 -17 -4
-20 3 -4 1 -7 -6 -7 -8 0 -11 -7 -7 -15 3 -8 2 -15 -2 -15 -5 0 -13 -15 -20
-33 -17 -48 -62 -87 -105 -91 -21 -2 -38 -1 -38 3 -4 20 -5 168 -1 183 2 9 20
22 39 29 19 6 32 13 29 16 -10 10 -66 11 -66 1 0 -5 -8 -5 -17 -1 -15 7 -64 9
-160 4 -13 -1 -23 -6 -23 -11 0 -6 3 -9 8 -8 13 2 47 -15 58 -31 17 -22 13
-373 -5 -394 -7 -9 -18 -14 -24 -10 -6 4 -7 1 -3 -6 5 -8 3 -11 -7 -9 -9 2
-16 -1 -16 -6 -1 -13 61 -16 77 -3 6 5 12 6 12 1 0 -5 36 -9 80 -9 59 0 80 3
80 13 0 7 -4 10 -10 7 -5 -3 -10 -1 -10 6 0 7 -3 10 -6 6 -4 -3 -14 1 -23 10
-12 13 -16 37 -17 100 -1 72 2 83 18 89 18 5 98 -33 98 -47 0 -4 6 -14 13 -21
11 -12 20 -32 51 -115 7 -18 15 -35 19 -39 10 -10 101 -12 115 -1 6 5 12 5 12
1 0 -5 22 -9 49 -9 27 0 47 3 45 7 -2 4 10 3 27 -2 19 -6 38 -6 49 0 10 5 21
5 26 0 12 -12 56 -1 48 12 -3 5 -12 7 -20 4 -8 -3 -14 -1 -14 5 0 6 -4 8 -9 4
-14 -8 -29 24 -23 49 3 11 11 32 18 45 7 14 11 28 9 32 -8 11 25 16 113 15
l83 -1 22 -40 c12 -22 24 -42 27 -45 3 -3 4 -12 4 -20 -1 -8 -2 -21 -3 -29 -1
-8 -8 -11 -19 -9 -10 3 -27 -1 -38 -10 -18 -14 -18 -14 4 -9 12 3 22 1 22 -3
0 -10 20 -8 39 4 8 5 12 5 8 0 -4 -7 173 -11 191 -5 1 1 -3 7 -10 15 -7 8 -16
12 -20 10 -10 -6 -58 45 -58 62 0 13 -18 52 -30 64 -3 3 -6 12 -8 20 -2 8 -14
39 -28 68 -13 29 -24 57 -24 62 0 6 -4 10 -8 10 -5 0 -9 6 -9 13 0 6 -13 39
-29 72 -15 33 -28 65 -29 70 0 6 -6 9 -13 7 -7 -1 -12 2 -12 7 0 14 -33 8 -51
-9 -13 -13 -69 -122 -69 -135 0 -2 -18 -41 -39 -87 -22 -46 -43 -96 -46 -111
-4 -15 -11 -27 -16 -27 -5 0 -9 -6 -9 -14 0 -17 -50 -79 -57 -72 -3 3 -16 1
-29 -4 -16 -6 -24 -6 -24 1 0 6 -3 8 -8 5 -4 -2 -18 2 -32 10 -14 7 -21 13
-17 14 10 0 -50 108 -76 137 -11 13 -41 33 -66 45 -25 12 -40 23 -33 26 7 2
10 8 6 13 -3 5 -1 9 5 9 9 0 61 100 61 118 0 5 6 15 14 21 11 9 16 9 23 -2 8
-14 49 -40 70 -43 18 -3 53 34 53 57 0 43 -61 75 -109 57z"/>
<path d="M1993 2728 c-9 -10 -12 -18 -8 -18 4 0 1 -8 -7 -17 -13 -16 -29 -46
-32 -63 -1 -5 -13 -30 -73 -157 -13 -29 -23 -54 -22 -55 5 -5 -45 -92 -56
-100 -7 -5 -7 -8 0 -8 6 -1 -6 -9 -25 -19 -19 -11 -38 -17 -42 -15 -4 3 -5 -1
-3 -9 6 -14 71 -17 93 -4 6 5 12 4 12 0 0 -5 20 -9 45 -9 55 1 64 16 13 20
-21 2 -49 39 -42 55 3 9 7 22 7 29 0 6 4 12 9 12 4 0 8 9 8 19 0 29 17 36 105
38 83 2 115 -7 115 -32 0 -8 5 -15 12 -15 6 0 8 -3 5 -6 -3 -4 -1 -16 5 -28
18 -31 18 -43 1 -63 -8 -10 -12 -13 -9 -7 4 7 -4 9 -21 6 -22 -4 -24 -7 -11
-16 22 -16 250 -14 256 2 2 7 0 12 -5 11 -14 -2 -53 13 -53 21 0 5 -6 15 -13
22 -7 7 -53 105 -102 217 -85 194 -92 204 -118 205 -15 1 -35 -6 -44 -16z"/>
<path d="M2912 2741 c-17 -10 -24 -68 -10 -77 7 -4 6 -9 -3 -15 -12 -8 -11
-11 1 -19 22 -15 25 -13 43 25 18 37 73 78 95 70 6 -2 12 1 12 9 0 15 -30 17
-47 3 -9 -6 -13 -6 -13 1 0 11 -40 10 -60 -3 -9 -5 -11 -4 -6 3 8 14 6 15 -12
3z"/>
<path d="M3065 2741 c-3 -2 4 -10 14 -17 17 -13 19 -28 17 -216 -1 -193 -6
-235 -26 -223 -5 3 -11 1 -15 -5 -4 -6 -10 -8 -15 -5 -5 3 -11 1 -14 -4 -9
-13 19 -17 129 -15 144 3 147 3 140 14 -4 6 -11 8 -16 5 -5 -4 -9 -1 -9 4 0 6
-3 10 -7 10 -31 -5 -40 3 -38 31 1 17 -2 30 -7 30 -7 0 -7 4 -1 13 13 15 13
47 0 47 -6 0 -6 5 0 13 13 15 13 47 0 47 -6 0 -6 5 0 13 13 15 13 47 0 47 -6
0 -6 5 0 13 13 15 13 47 0 47 -6 0 -6 5 0 13 5 6 9 33 8 59 -1 27 3 52 9 57
19 16 77 6 100 -15 31 -29 56 -63 56 -74 0 -12 19 -14 21 -2 7 48 2 105 -10
110 -22 9 -95 8 -113 0 -10 -5 -18 -5 -18 -1 0 10 -131 10 -148 -1 -6 -4 -12
-3 -12 1 0 9 -37 12 -45 4z"/>
<path d="M3710 2742 c-18 -2 -30 -13 -39 -35 -8 -18 -28 -61 -45 -97 -17 -36
-30 -68 -28 -72 1 -5 -3 -8 -10 -8 -6 0 -9 -3 -5 -6 3 -4 -4 -25 -17 -49 -13
-23 -27 -56 -31 -73 -3 -18 -11 -32 -16 -32 -5 0 -9 -6 -9 -14 0 -19 -50 -77
-60 -71 -5 3 -11 1 -15 -5 -4 -6 -11 -8 -16 -5 -5 4 -9 2 -9 -3 0 -16 13 -22
27 -11 7 6 13 7 13 3 0 -5 33 -9 73 -8 92 3 89 2 82 15 -4 6 -10 8 -13 5 -3
-3 -11 -1 -19 5 -7 6 -13 8 -13 4 0 -4 -7 -2 -15 5 -16 13 -12 44 11 89 7 13
11 28 8 33 -3 4 1 9 8 10 38 4 156 6 173 3 23 -5 67 -74 71 -111 2 -21 -19
-39 -34 -30 -4 2 -12 -2 -19 -9 -17 -19 -6 -21 131 -20 85 1 121 5 124 13 2 7
0 12 -5 11 -27 -7 -72 30 -77 62 -1 3 -11 26 -23 52 -13 26 -33 68 -44 95 -12
26 -30 63 -40 83 -11 20 -19 44 -19 53 0 9 -4 16 -10 16 -5 0 -10 7 -10 15 0
21 -31 84 -44 87 -6 2 -22 2 -36 0z"/>
<path d="M4096 2739 c2 -3 -9 -4 -24 -2 l-27 4 25 -15 c14 -8 28 -12 32 -10 5
3 8 0 8 -6 0 -6 4 -9 8 -6 5 3 9 -86 9 -197 0 -155 -3 -205 -13 -215 -8 -7
-18 -10 -24 -7 -5 3 -10 1 -10 -5 0 -6 -5 -8 -11 -4 -7 4 -10 1 -7 -7 3 -8 16
-14 31 -14 14 -1 23 3 20 9 -4 5 -1 6 8 0 19 -11 259 -12 283 -1 13 7 16 6 11
-3 -6 -9 -3 -9 12 -1 11 6 23 7 27 3 4 -3 10 -1 14 6 5 6 17 13 28 15 20 3 76
47 60 47 -5 0 -2 7 5 16 21 26 11 75 -23 111 -27 28 -78 51 -100 45 -5 -1 -8
7 -8 18 0 13 7 20 20 20 11 0 20 4 20 9 0 5 9 11 19 14 21 5 51 46 55 74 7 47
-49 90 -131 99 -76 9 -322 11 -317 3z"/>
<path d="M4673 2742 c-13 -2 -23 -8 -23 -13 0 -5 3 -8 8 -7 14 4 52 -14 53
-25 1 -7 2 -95 4 -197 2 -176 -4 -228 -26 -215 -5 4 -9 1 -9 -5 0 -6 -4 -9 -9
-6 -5 3 -11 0 -14 -7 -6 -16 22 -19 41 -4 6 5 12 5 12 1 0 -11 161 -11 178 0
7 4 12 2 12 -4 0 -6 5 -8 10 -5 16 10 3 22 -30 28 -28 6 -37 23 -31 60 0 4 -4
7 -10 7 -8 0 -8 4 -2 13 6 6 9 35 8 62 -1 28 0 55 2 61 4 10 232 15 234 5 1
-3 3 -47 4 -98 2 -73 0 -95 -13 -105 -8 -7 -18 -12 -21 -12 -3 1 -15 -2 -26
-7 -21 -8 -17 -11 27 -13 16 -1 24 2 20 9 -4 7 -1 7 9 0 8 -6 52 -10 99 -9
122 3 117 2 95 18 -11 8 -25 12 -31 9 -25 -10 -31 37 -29 222 3 224 2 218 15
210 6 -3 10 0 10 7 0 9 2 10 8 1 5 -8 12 -8 26 3 11 8 16 14 10 15 -42 4 -234
3 -234 -2 0 -3 -12 -4 -27 -2 l-28 5 23 -17 c12 -9 26 -14 31 -11 20 13 39
-31 39 -94 0 -77 -5 -103 -21 -97 -7 2 -20 0 -29 -5 -10 -5 -18 -5 -18 0 0 5
-7 9 -15 9 -8 0 -15 -5 -15 -10 0 -5 -6 -5 -13 2 -10 8 -17 7 -25 -1 -7 -7
-12 -8 -12 -2 0 6 -7 11 -15 11 -8 0 -15 -4 -15 -9 0 -5 -6 -6 -12 -1 -7 4
-21 6 -30 5 -21 -4 -20 -8 -23 83 -3 84 6 110 35 112 26 2 52 22 32 24 -7 1
-18 2 -24 3 -7 1 -20 -1 -29 -5 -9 -5 -19 -5 -23 -1 -7 6 -123 10 -163 4z"/>
<path d="M5365 2740 c-2 -4 5 -11 16 -18 14 -9 19 -9 19 -1 0 7 11 0 24 -15
23 -28 23 -32 21 -210 -2 -168 -8 -221 -24 -212 -3 2 -22 -3 -41 -10 -19 -8
-25 -12 -12 -10 12 2 22 1 22 -3 0 -4 9 -7 20 -8 11 -1 18 2 15 7 -3 5 7 6 22
2 23 -6 131 -8 185 -3 6 1 3 7 -7 15 -11 8 -23 12 -26 10 -4 -2 -13 4 -20 13
-11 12 -14 61 -15 207 0 205 2 215 53 216 16 0 21 4 17 15 -5 13 -9 13 -22 3
-9 -7 -13 -8 -10 -3 4 6 -37 10 -114 10 -66 0 -121 -2 -123 -5z"/>
<path d="M5724 2738 c-3 -4 0 -8 6 -8 6 0 8 -5 4 -11 -4 -8 0 -8 15 0 17 10
21 9 21 -4 0 -8 4 -15 8 -15 12 0 10 -410 -3 -412 -5 0 -14 -2 -20 -2 -5 -1
-19 -8 -30 -15 -19 -12 -19 -12 3 -8 12 3 22 2 22 -1 0 -6 331 -7 338 -2 1 2
10 3 20 4 25 3 74 27 93 46 30 30 44 120 18 120 -5 0 -9 6 -9 14 0 8 -9 18
-20 21 -11 3 -20 10 -20 14 0 8 -57 25 -72 22 -5 0 -8 8 -8 18 0 14 9 21 31
26 17 4 33 13 36 21 3 8 8 12 12 9 4 -2 15 12 24 31 15 32 16 38 2 64 -20 38
-53 60 -102 67 -69 9 -238 9 -250 0 -8 -6 -13 -6 -13 0 0 11 -99 12 -106 1z"/>
<path d="M6882 2739 c-13 -6 -9 -11 21 -23 21 -9 35 -21 32 -27 -4 -5 -1 -16
5 -24 7 -8 9 -15 4 -15 -5 0 -9 -45 -9 -100 0 -55 4 -100 9 -100 5 0 4 -6 -1
-12 -5 -7 -8 -38 -7 -68 2 -57 -10 -95 -27 -85 -5 4 -9 2 -9 -4 0 -6 -7 -8
-15 -5 -8 4 -15 1 -15 -5 0 -13 -8 -13 203 -14 92 -1 167 1 167 4 0 3 6 6 13
6 26 0 89 37 100 60 5 12 14 23 19 23 5 0 7 4 3 9 -3 5 -1 12 4 15 13 9 -7 78
-27 94 -9 6 -12 12 -7 12 6 0 -6 8 -25 19 -19 10 -38 17 -42 14 -5 -2 -8 0 -8
4 0 11 -27 15 -122 16 -47 0 -79 5 -80 11 -1 6 -2 43 -2 81 -1 65 10 98 31 94
20 -3 33 2 33 15 0 8 -9 13 -24 12 -13 0 -22 -5 -18 -10 3 -5 -1 -5 -9 0 -16
10 -172 12 -197 3z"/>
<path d="M2797 1954 c-5 -4 -86 -16 -114 -16 -24 -1 -32 -6 -36 -24 -2 -13 1
-28 6 -33 8 -8 8 -11 0 -11 -10 0 -10 -47 1 -57 3 -4 12 9 20 28 28 67 108
116 143 87 7 -6 13 -7 13 -3 0 4 9 -4 20 -18 27 -34 15 -127 -16 -127 -8 0
-14 -4 -14 -9 0 -5 -14 -7 -30 -6 -51 4 -43 -12 9 -19 47 -6 71 -21 75 -48 1
-7 5 -18 8 -24 20 -32 -38 -124 -78 -124 -8 0 -14 -6 -14 -13 0 -7 9 -13 20
-13 11 0 20 4 20 9 0 4 4 6 9 2 19 -11 94 21 122 53 27 30 35 55 29 92 -3 21
-62 72 -76 66 -7 -3 -17 1 -24 8 -8 11 -1 18 32 35 24 11 39 21 34 21 -5 0 -4
6 1 13 23 28 21 58 -4 87 -14 17 -29 28 -34 24 -5 -3 -9 -1 -9 4 0 5 -6 9 -12
10 -30 3 -100 7 -101 6z"/>
<path d="M6715 1953 c-52 -9 -65 -14 -60 -23 3 -5 0 -12 -7 -17 -14 -9 -36
-48 -40 -73 -2 -8 -6 -17 -10 -20 -3 -3 -8 -12 -10 -19 -4 -20 -31 -49 -40
-44 -5 2 -8 0 -8 -5 0 -7 -25 -9 -62 -3 -3 1 -5 37 -5 81 2 67 5 81 22 94 11
8 17 18 13 22 -4 4 -14 1 -23 -6 -9 -7 -15 -8 -15 -2 0 11 -46 9 -57 -2 -3 -3
-12 -1 -19 5 -19 16 -37 1 -29 -25 4 -11 9 -93 10 -181 2 -154 -4 -193 -27
-178 -6 3 -9 0 -6 -8 3 -10 27 -13 87 -14 46 0 88 3 94 7 8 5 5 8 -6 8 -32 0
-46 25 -46 76 2 78 8 101 27 99 39 -4 74 -27 87 -57 7 -18 17 -37 22 -41 4 -5
8 -12 9 -15 7 -44 19 -72 32 -77 9 -3 18 -1 20 4 2 6 7 9 12 6 17 -10 71 -12
76 -3 4 6 9 5 14 -2 5 -9 9 -9 14 -1 6 10 -7 16 -18 9 -8 -5 -47 51 -51 74 -3
12 -10 25 -17 30 -7 4 -9 8 -3 8 5 0 -10 18 -34 40 -23 22 -49 40 -57 40 -19
0 -18 23 4 51 11 13 18 34 17 46 -1 12 2 21 6 20 4 -1 14 7 22 17 14 19 15 19
41 -1 30 -24 61 -20 77 9 19 36 -13 78 -56 71z"/>
<path d="M7035 1952 c-16 -2 -37 -6 -45 -9 -8 -3 -21 -7 -28 -9 -15 -3 -100
-67 -100 -74 1 -3 -6 -21 -15 -41 -9 -20 -17 -52 -18 -70 -4 -60 39 -158 69
-159 6 0 12 -4 12 -9 0 -10 66 -44 95 -48 71 -11 175 0 175 18 0 6 5 7 10 4 6
-3 13 1 16 9 3 9 10 14 14 11 11 -7 35 23 63 80 19 36 22 52 14 57 -7 4 -7 8
-2 8 12 0 10 51 -2 92 -10 35 -61 98 -79 98 -8 0 -14 4 -14 9 0 17 -107 39
-165 33z"/>
<path d="M1497 1938 c-11 -7 -2 -12 16 -9 4 1 14 -13 22 -31 9 -24 13 -71 11
-163 -3 -133 -11 -189 -27 -179 -5 3 -9 1 -9 -5 0 -6 -7 -8 -15 -5 -8 4 -15 2
-15 -3 0 -13 113 -11 122 2 5 7 8 6 8 0 0 -6 9 -11 21 -11 19 0 19 1 3 13 -10
7 -22 13 -27 13 -28 0 -34 29 -33 172 1 80 4 149 7 153 7 6 37 -53 60 -117 7
-21 17 -38 22 -38 4 0 5 -4 2 -10 -3 -5 4 -31 16 -57 13 -26 24 -57 26 -67 9
-50 48 -61 64 -18 6 15 16 38 22 52 6 14 12 30 12 35 1 6 12 33 24 60 38 82
44 100 43 108 -1 4 3 7 8 7 6 0 10 9 10 20 0 13 7 20 19 20 17 0 18 -10 17
-154 -1 -85 -4 -158 -8 -161 -3 -4 -14 -8 -25 -10 -29 -6 -29 -6 -8 -14 11 -5
25 -4 33 1 6 6 12 7 12 2 0 -5 28 -8 62 -8 80 2 80 2 73 14 -3 5 -12 7 -20 3
-17 -6 -18 -2 -19 147 -1 58 -5 111 -9 118 -5 6 -4 12 2 12 5 0 8 15 5 34 -4
34 14 66 37 66 6 0 8 4 4 9 -5 10 -43 7 -53 -4 -3 -2 -11 0 -19 6 -10 9 -17 8
-28 -1 -9 -8 -15 -9 -15 -2 0 12 -40 7 -50 -5 -3 -5 -21 -44 -39 -88 -18 -44
-39 -92 -47 -108 -9 -15 -12 -32 -9 -37 4 -6 -5 -10 -19 -10 -14 0 -25 3 -24
8 3 11 -35 106 -45 113 -5 4 -7 11 -4 16 4 6 0 19 -8 29 -8 10 -15 26 -15 34
-1 27 -28 52 -59 54 -17 1 -31 -3 -31 -8 0 -7 -3 -8 -8 -1 -8 12 -78 14 -95 3z"/>
<path d="M2150 1933 c0 -9 3 -13 6 -10 9 8 26 -16 109 -148 38 -60 72 -112 75
-115 11 -9 19 -38 12 -44 -10 -10 -11 -36 -1 -36 5 0 11 11 15 25 3 14 10 25
15 25 10 0 34 49 31 63 -1 4 3 7 8 7 6 0 16 12 22 28 7 15 20 38 30 51 15 19
16 26 6 33 -10 6 -8 8 5 8 9 0 17 7 17 15 0 8 3 15 8 15 4 0 13 13 20 28 7 16
23 35 37 42 14 7 23 16 20 18 -8 9 -116 8 -122 0 -2 -5 1 -8 7 -8 6 0 17 -6
25 -13 11 -11 9 -22 -11 -62 -12 -27 -21 -52 -19 -56 3 -4 -2 -10 -11 -13 -8
-3 -12 -10 -9 -16 3 -5 1 -10 -5 -10 -6 0 -9 -4 -6 -9 7 -11 -17 -21 -31 -13
-6 4 -18 22 -27 40 -9 17 -20 32 -25 32 -5 0 -11 10 -15 23 -3 12 -13 31 -23
42 -21 23 -23 51 -4 47 7 -1 11 3 9 10 -5 14 -97 18 -115 5 -8 -6 -13 -6 -13
0 0 5 -9 9 -20 10 -12 1 -20 -4 -20 -14z"/>
<path d="M3090 1932 c0 -7 4 -11 9 -8 18 12 25 -33 27 -188 2 -144 0 -159 -17
-174 -10 -9 -19 -19 -19 -22 0 -3 33 -5 73 -4 65 1 72 3 69 20 -10 55 -8 59
91 161 18 18 29 33 24 33 -4 0 12 18 34 40 23 22 44 40 48 40 10 0 8 -252 -2
-267 -5 -7 -16 -13 -25 -13 -14 0 -15 -2 -2 -10 9 -6 17 -5 22 3 4 7 8 8 8 2
0 -6 33 -10 79 -10 44 0 78 2 75 4 -2 2 -14 9 -26 15 -23 11 -23 15 -24 181 0
94 4 176 9 183 5 6 19 12 30 12 11 0 17 3 14 6 -9 9 -172 11 -194 2 -17 -6
-17 -7 0 -7 9 -1 20 0 23 2 4 1 11 -9 16 -23 6 -16 5 -26 -1 -28 -6 -2 -11 -9
-11 -16 0 -6 -15 -28 -32 -47 -18 -19 -52 -57 -75 -84 -24 -28 -51 -58 -60
-68 -17 -18 -18 -18 -21 2 -2 12 -8 21 -14 21 -7 0 -7 4 -1 13 13 15 13 47 1
47 -5 0 -6 6 -1 13 4 6 8 37 9 67 1 95 2 100 24 100 11 0 20 3 20 8 0 4 -40 7
-90 7 -67 0 -90 -3 -90 -13z"/>
<path d="M3664 1938 c2 -7 10 -12 19 -10 18 3 26 -33 25 -108 -1 -69 19 -106
64 -121 38 -12 76 -15 108 -7 50 13 89 31 84 39 -3 6 -11 6 -17 2 -11 -8 -33
-9 -95 -5 -13 1 -21 6 -18 11 4 5 1 11 -6 13 -8 3 -13 31 -14 79 -1 84 3 102
22 95 8 -3 14 0 14 7 0 13 -146 17 -167 4 -6 -4 -14 -2 -16 3 -3 6 -4 5 -3 -2z"/>
<path d="M3938 1938 c-9 -5 -4 -8 13 -8 31 0 36 -12 35 -93 -1 -31 3 -57 7
-57 5 0 1 -7 -8 -16 -10 -10 -13 -23 -9 -33 4 -9 8 -49 9 -89 3 -62 0 -74 -16
-83 -10 -5 -19 -13 -19 -17 0 -9 177 -9 186 1 4 4 0 7 -10 7 -38 0 -42 19 -41
190 0 156 6 197 25 185 4 -3 12 1 18 8 8 9 1 12 -31 12 -23 -1 -48 -4 -55 -8
-6 -5 -12 -4 -12 0 0 11 -75 12 -92 1z"/>
<path d="M4223 1938 c-2 -5 2 -8 9 -8 39 -1 42 -15 44 -177 3 -176 1 -189 -27
-198 -10 -4 -19 -11 -19 -17 0 -7 4 -7 13 1 8 6 17 8 21 4 9 -10 166 -10 166
0 0 4 -7 7 -16 7 -33 0 -43 25 -41 104 0 42 5 77 9 77 4 1 13 3 18 4 6 1 17 3
25 4 8 0 15 5 15 10 0 5 -9 7 -20 4 -37 -10 -48 12 -45 85 3 88 4 92 13 91 17
-3 35 2 29 7 -9 10 -188 11 -194 2z"/>
<path d="M4540 1942 c-6 -2 -8 -8 -5 -12 3 -5 12 -7 20 -3 16 6 16 4 20 -90 2
-39 -2 -63 -11 -72 -16 -16 -19 -39 -4 -30 12 8 12 8 15 -97 1 -48 -1 -87 -4
-86 -21 2 -43 -3 -37 -9 11 -11 108 -11 130 0 12 6 16 6 12 -1 -4 -7 4 -10 19
-8 26 3 48 16 26 16 -21 0 -37 24 -36 53 1 15 -2 27 -7 27 -5 0 -6 6 -1 13 4
6 8 73 8 147 0 120 2 135 17 135 18 0 38 14 22 16 -5 0 -22 2 -39 3 -16 2 -36
-2 -42 -7 -8 -5 -13 -6 -13 0 0 8 -68 12 -90 5z"/>
<path d="M5019 1943 c-9 -2 -21 -14 -27 -26 -23 -47 -71 -156 -96 -215 -35
-82 -72 -147 -84 -147 -13 0 -28 -15 -16 -16 5 0 35 -2 67 -3 62 -2 85 8 39
17 -20 4 -28 12 -30 31 -1 14 3 28 8 31 6 4 8 11 5 16 -4 5 -1 9 4 9 6 0 11 8
11 18 0 16 9 18 83 16 45 -1 85 -2 89 -3 3 0 12 -18 19 -38 6 -21 16 -41 21
-44 5 -3 2 -13 -6 -22 -18 -18 -21 -37 -6 -37 6 0 10 6 10 13 0 7 3 8 8 2 4
-5 34 -9 67 -9 84 2 87 3 80 14 -4 6 -10 8 -15 5 -9 -6 -60 66 -60 83 0 5 -6
22 -14 38 -14 28 -41 89 -73 164 -9 19 -22 49 -29 66 -15 33 -29 43 -55 37z"/>
<path d="M5486 1941 c-19 -7 -19 -8 2 -13 15 -4 22 -2 22 8 0 8 -1 14 -2 13
-2 0 -12 -4 -22 -8z"/>
<path d="M5524 1935 c-3 -8 -2 -20 3 -27 4 -7 9 -83 9 -168 1 -143 -5 -194
-24 -187 -4 1 -8 -2 -9 -8 -4 -13 18 -14 35 -2 7 6 12 6 12 0 0 -5 27 -9 60
-8 33 0 60 4 60 9 0 5 6 4 13 -2 7 -6 18 -7 26 -3 17 11 4 18 -31 16 -16 0
-30 6 -35 15 -4 8 -7 86 -8 174 -2 147 0 159 18 177 23 21 16 39 -8 19 -9 -7
-15 -8 -15 -2 0 11 -39 10 -58 -2 -6 -3 -13 -2 -17 4 -9 15 -25 12 -31 -5z"/>
<path d="M5767 1933 c3 -7 9 -11 13 -8 19 12 25 -29 26 -188 1 -181 -1 -187
-53 -182 -13 1 -23 -3 -23 -9 0 -8 72 -11 230 -11 127 0 230 4 230 9 0 5 6 4
13 -2 8 -7 18 -7 27 -2 12 8 10 10 -7 10 -31 0 -41 25 -39 98 1 34 -2 62 -7
62 -6 0 -5 5 0 13 5 6 8 52 7 100 -1 67 2 90 12 94 8 3 14 11 14 17 0 13 -67
15 -88 3 -6 -5 -12 -4 -12 1 0 10 -55 10 -66 0 -4 -5 -2 -8 5 -8 33 0 37 -24
37 -192 -1 -91 -5 -170 -9 -175 -14 -13 -155 -13 -160 0 -4 11 -2 341 1 360 1
4 9 7 17 7 8 0 15 3 15 8 0 4 -42 7 -94 7 -70 0 -92 -3 -89 -12z"/>
<path d="M6326 1941 c-19 -7 -19 -8 2 -13 15 -4 22 -2 22 8 0 8 -1 14 -2 13
-2 0 -12 -4 -22 -8z"/>
<path d="M7487 1938 c-8 -5 -6 -8 5 -8 29 0 47 -38 42 -89 -5 -48 -11 -86 -14
-86 -1 0 -6 -17 -13 -47 -1 -7 -5 -17 -8 -23 -4 -5 -9 -22 -13 -37 -7 -33 -43
-55 -59 -39 -16 16 -63 13 -81 -5 -34 -33 -6 -78 47 -76 25 0 42 11 74 47 24
26 40 51 37 56 -3 5 0 9 7 9 6 0 9 8 6 20 -3 13 -1 18 6 13 6 -4 8 0 4 10 -3
10 -3 17 2 17 7 0 17 33 22 75 1 6 5 20 10 32 5 14 4 23 -4 27 -9 3 -9 5 0 5
7 1 10 11 7 26 -9 48 10 65 69 63 l53 -2 0 -176 c-1 -96 -5 -181 -9 -187 -5
-7 -15 -13 -24 -13 -9 0 -13 -3 -10 -7 9 -9 187 -10 187 -1 0 4 -8 13 -18 20
-17 12 -19 28 -17 183 1 94 4 177 8 185 6 12 0 15 -30 15 -21 0 -44 -4 -50 -8
-7 -5 -13 -5 -13 0 0 10 -208 11 -223 1z"/>
<path d="M7816 1935 c-3 -8 -1 -15 4 -15 6 0 10 7 10 15 0 8 -2 15 -4 15 -2 0
-6 -7 -10 -15z"/>
<path d="M8067 1861 c-23 -47 -42 -89 -43 -93 -1 -5 -3 -11 -4 -15 -1 -5 -2
-11 -1 -15 0 -5 -3 -8 -9 -8 -5 0 -9 -3 -8 -7 1 -5 -15 -43 -36 -85 -28 -59
-43 -79 -62 -84 -14 -4 -23 -9 -20 -12 9 -8 145 -9 140 0 -3 4 -14 8 -25 8
-11 0 -17 5 -14 10 3 6 1 10 -4 10 -12 0 -10 22 8 65 15 37 24 42 67 40 19 -1
34 3 34 9 0 7 3 8 8 1 4 -5 18 -11 32 -11 14 -1 30 -2 37 -3 11 -1 23 -27 29
-60 2 -8 6 -17 11 -20 15 -11 8 -34 -11 -37 -10 -1 -22 -6 -27 -11 -4 -4 36
-7 89 -6 119 1 115 1 107 13 -4 6 -9 8 -13 6 -8 -5 -38 15 -40 27 -1 4 -11 28
-22 54 -11 26 -23 57 -26 70 -4 13 -10 23 -15 23 -5 0 -8 3 -7 8 1 4 -8 29
-20 56 -13 28 -25 60 -28 73 -4 13 -11 23 -17 23 -6 0 -7 3 -4 6 12 12 -12 42
-39 47 -24 4 -29 -1 -67 -82z"/>
<path d="M4450 1747 c0 -10 11 -14 38 -13 37 2 53 19 20 21 -10 1 -18 -2 -18
-7 0 -5 -9 -4 -20 2 -16 8 -20 8 -20 -3z"/>
<path d="M2630 1650 c-25 -25 -25 -42 -2 -68 28 -32 72 -57 72 -41 0 12 2 12
9 1 10 -16 73 -23 68 -8 -2 6 -8 11 -13 11 -5 1 -21 4 -35 8 -24 6 -26 10 -22
50 4 39 2 44 -22 55 -33 15 -31 16 -55 -8z"/>
<path d="M2210 1613 c-9 -2 -21 -12 -27 -23 -10 -15 -9 -23 6 -42 15 -18 27
-22 61 -19 45 3 80 26 79 51 0 10 -2 11 -6 3 -7 -19 -27 -16 -47 6 -19 21 -42
29 -66 24z"/>
<path d="M3251 1544 c0 -11 3 -14 6 -6 3 7 2 16 -1 19 -3 4 -6 -2 -5 -13z"/>
</g>
</svg>
