<?xml version="1.0" standalone="no"?>
<!DOCTYPE svg PUBLIC "-//W3C//DTD SVG 20010904//EN"
 "http://www.w3.org/TR/2001/REC-SVG-20010904/DTD/svg10.dtd">
<svg version="1.0" xmlns="http://www.w3.org/2000/svg"
 width="96.000000pt" height="96.000000pt" viewBox="0 0 96.000000 96.000000"
 preserveAspectRatio="xMidYMid meet">
<metadata>
Created by potrace 1.14, written by Peter Selinger 2001-2017
</metadata>
<g transform="translate(0.000000,96.000000) scale(0.100000,-0.100000)"
fill="#000000" stroke="none">
<path d="M186 775 c-64 -32 -86 -53 -86 -80 0 -27 29 -55 58 -55 21 0 22 -4
22 -90 0 -83 -1 -90 -20 -90 -28 0 -60 -35 -60 -64 0 -44 33 -56 152 -56 95 0
110 2 128 20 11 11 20 28 20 38 0 25 -28 62 -48 63 -27 1 60 38 90 39 28 0 58
-23 58 -45 0 -30 -16 -48 -104 -117 -144 -115 -158 -136 -116 -178 18 -18 33
-20 170 -20 137 0 152 2 170 20 24 24 25 48 5 77 -12 17 -27 23 -71 25 l-55 3
44 37 c42 35 46 36 88 26 54 -12 137 -5 175 15 45 23 78 89 70 143 -3 24 -12
55 -21 67 -12 19 -13 30 -4 56 49 139 -123 243 -260 157 -48 -31 -61 -65 -37
-101 20 -31 47 -32 96 -4 26 15 47 20 64 15 46 -11 25 -56 -26 -56 -33 0 -68
-31 -68 -60 0 -31 36 -60 73 -60 18 0 42 -6 52 -14 16 -12 17 -16 6 -30 -14
-17 -48 -20 -100 -10 -25 5 -33 13 -41 44 -28 102 -141 154 -252 114 l-38 -13
0 80 c0 72 -3 82 -25 104 -30 31 -48 31 -109 0z"/>
</g>
</svg>
