<?xml version="1.0" standalone="no"?>
<!DOCTYPE svg PUBLIC "-//W3C//DTD SVG 20010904//EN"
 "http://www.w3.org/TR/2001/REC-SVG-20010904/DTD/svg10.dtd">
<svg version="1.0" xmlns="http://www.w3.org/2000/svg"
 width="100.000000pt" height="100.000000pt" viewBox="0 0 100.000000 100.000000"
 preserveAspectRatio="xMidYMid meet">
<metadata>
Created by potrace 1.14, written by Peter Selinger 2001-2017
</metadata>
<g transform="translate(0.000000,100.000000) scale(0.100000,-0.100000)"
fill="#000000" stroke="none">
<path d="M480 940 c0 -5 -7 -7 -15 -4 -8 4 -15 2 -15 -4 0 -9 -37 -25 -52 -23
-5 1 -8 -3 -8 -9 0 -6 -41 -10 -102 -10 -57 0 -109 -4 -117 -9 -12 -8 -15 -49
-15 -216 -1 -113 2 -213 5 -222 3 -11 19 -18 45 -20 55 -4 64 -9 61 -32 -5
-30 -11 -33 -74 -34 -41 0 -62 -5 -70 -16 -33 -44 3 -78 80 -76 31 1 58 -1 58
-4 9 -44 7 -62 -6 -57 -14 5 -65 -40 -65 -57 0 -4 -4 -6 -9 -3 -13 9 -38 -35
-39 -69 l-1 -30 342 1 c188 1 350 2 360 3 12 1 17 9 17 29 0 32 -64 107 -102
120 -13 4 -119 7 -236 7 -225 -2 -230 -1 -227 45 1 30 -27 45 -87 46 -32 0
-58 3 -58 7 0 4 0 11 0 16 0 5 25 10 56 10 65 0 89 16 89 59 0 23 5 28 35 32
19 3 49 4 65 2 29 -3 30 -5 27 -51 -4 -47 -4 -47 -40 -47 -32 1 -36 -2 -37
-27 -1 -15 1 -27 4 -28 3 -1 72 -2 153 -3 136 -2 147 0 152 17 8 30 -2 43 -36
45 -17 1 -34 5 -38 7 -7 4 -3 75 5 83 2 3 58 5 124 5 100 0 121 3 127 16 10
23 11 413 2 434 -8 14 -23 17 -112 17 -56 0 -106 3 -110 8 -4 4 -11 7 -14 8
-4 0 -28 10 -54 22 -51 24 -68 27 -68 12z"/>
</g>
</svg>
