<?xml version="1.0" standalone="no"?>
<!DOCTYPE svg PUBLIC "-//W3C//DTD SVG 20010904//EN"
 "http://www.w3.org/TR/2001/REC-SVG-20010904/DTD/svg10.dtd">
<svg version="1.0" xmlns="http://www.w3.org/2000/svg"
 width="1000.000000pt" height="1000.000000pt" viewBox="0 0 1000.000000 1000.000000"
 preserveAspectRatio="xMidYMid meet">
<metadata>
Created by potrace 1.14, written by Peter Selinger 2001-2017
</metadata>
<g transform="translate(0.000000,1000.000000) scale(0.100000,-0.100000)"
fill="#000000" stroke="none">
<path d="M4881 8910 c-3 -3 -28 -63 -55 -135 -96 -256 -238 -568 -356 -780
-18 -33 -42 -76 -53 -95 -100 -180 -279 -454 -426 -650 -70 -93 -250 -317
-296 -366 -5 -6 -41 -46 -80 -89 -90 -101 -300 -311 -399 -400 -54 -48 -101
-104 -151 -180 -197 -295 -291 -597 -293 -943 l-1 -133 77 6 c42 4 86 9 97 11
11 3 38 7 60 10 22 4 48 10 58 15 9 6 17 7 17 5 0 -7 166 52 211 75 36 18 36
19 30 66 -8 69 -7 399 2 458 15 103 19 122 39 210 77 335 254 657 500 906 51
52 115 112 143 134 27 22 56 45 63 52 52 49 432 266 432 247 0 -4 6 -2 13 4
19 15 184 70 277 91 119 28 172 37 285 47 254 23 547 -12 788 -95 31 -11 57
-18 57 -16 0 2 -38 60 -85 129 -47 68 -85 128 -85 132 0 4 -8 17 -18 28 -22
25 -104 164 -198 336 -129 233 -219 426 -316 675 -38 99 -74 188 -79 197 -5
10 -9 25 -9 33 0 8 -3 15 -7 16 -27 4 -236 3 -242 -1z"/>
<path d="M4486 8883 c-1 -1 -20 -5 -41 -7 -39 -5 -190 -31 -230 -40 -599 -129
-1056 -335 -1564 -703 -26 -19 -171 -136 -225 -182 -42 -35 -333 -326 -376
-376 -29 -32 -105 -127 -213 -265 -7 -9 -43 -63 -81 -120 -38 -58 -78 -117
-88 -132 -97 -145 -332 -630 -324 -669 0 -3 -4 -12 -10 -20 -9 -12 -101 -284
-108 -322 -2 -7 -8 -32 -15 -57 -15 -53 -12 -36 -50 -225 -16 -82 -32 -172
-36 -200 -5 -47 -15 -117 -18 -140 -3 -16 28 -7 163 47 168 67 253 106 455
209 180 91 254 131 295 159 14 9 32 20 40 24 62 29 458 290 480 316 3 4 26 20
51 38 94 63 336 265 477 397 236 221 398 396 586 630 387 482 659 950 902
1554 19 46 34 85 34 88 0 4 -99 0 -104 -4z"/>
<path d="M5410 8888 c0 -8 92 -235 137 -338 103 -234 382 -747 444 -816 11
-11 19 -23 19 -27 0 -3 37 -59 82 -124 379 -548 860 -1037 1403 -1429 98 -71
231 -161 277 -189 9 -5 88 -53 175 -105 260 -156 597 -318 932 -448 11 -4 13
7 7 59 -3 35 -8 73 -10 84 -2 11 -7 41 -10 67 -7 50 -13 84 -41 213 -41 195
-119 448 -200 645 -86 210 -218 464 -327 629 -10 14 -21 33 -25 41 -4 8 -25
40 -47 70 -23 30 -52 71 -65 90 -13 19 -26 37 -30 40 -3 3 -25 30 -47 60 -23
30 -50 65 -60 77 -11 12 -41 48 -69 81 -63 75 -307 318 -400 398 -80 69 -239
192 -314 244 -29 19 -57 40 -64 45 -14 11 -15 12 -147 92 -133 81 -138 83
-305 166 -230 114 -397 177 -720 273 -28 8 -64 17 -80 20 -17 2 -38 7 -47 10
-10 3 -30 7 -45 10 -16 3 -35 7 -43 9 -8 3 -33 7 -55 11 -22 3 -42 7 -45 9 -3
2 -33 7 -65 10 -33 4 -69 9 -80 11 -35 8 -135 16 -135 12z"/>
<path d="M5144 7162 c12 -157 48 -308 102 -429 26 -59 29 -61 58 -56 55 10
399 11 456 2 30 -5 74 -11 98 -14 23 -2 46 -6 50 -9 4 -2 23 -7 42 -10 57 -9
254 -67 269 -80 8 -6 17 -11 20 -10 25 5 246 -105 356 -177 181 -118 360 -285
491 -459 209 -277 343 -620 381 -975 15 -143 3 -415 -23 -530 -4 -16 -8 -37
-9 -45 -5 -38 -37 -156 -60 -221 -14 -40 -24 -74 -22 -75 1 -1 58 36 127 82
114 78 415 264 426 264 2 0 23 12 46 26 135 86 547 276 823 380 l139 53 1 108
c1 124 -2 143 -21 143 -8 0 -22 4 -32 9 -9 5 -62 26 -117 47 -55 20 -119 45
-142 55 -23 11 -44 19 -47 19 -3 0 -29 11 -58 24 -29 13 -80 36 -113 51 -98
44 -306 147 -370 184 -33 18 -78 43 -100 56 -106 58 -242 140 -261 157 -11 10
-24 18 -28 18 -31 0 -517 359 -690 510 -165 143 -233 208 -415 393 -226 230
-377 342 -581 432 -89 39 -206 83 -240 90 -8 2 -33 8 -56 14 -93 25 -227 42
-363 46 l-143 5 6 -78z"/>
<path d="M4766 7169 c-55 -16 -138 -46 -185 -66 -79 -34 -239 -118 -251 -132
-3 -3 -34 -26 -70 -50 -89 -62 -111 -80 -225 -196 -55 -55 -130 -143 -167
-195 -89 -125 -217 -382 -232 -465 -1 -5 -4 -14 -8 -20 -6 -11 -50 -200 -53
-230 -1 -11 -5 -46 -10 -78 -10 -74 -13 -273 -5 -287 9 -14 140 120 270 275
155 185 442 478 570 581 154 125 320 214 530 284 67 23 85 33 83 47 -1 10 -18
63 -37 118 -19 55 -37 114 -40 130 -3 17 -7 41 -11 55 -6 27 -12 69 -21 145
-4 28 -8 59 -9 70 -1 11 -3 26 -4 33 -1 16 -10 15 -125 -19z"/>
<path d="M5447 6438 c-16 -10 62 -90 233 -236 190 -164 196 -169 380 -352 212
-211 283 -292 347 -395 53 -84 139 -265 173 -365 18 -52 34 -96 35 -98 1 -1
28 9 60 23 67 30 198 69 281 84 33 6 68 13 79 15 11 2 50 7 87 10 42 5 65 12
64 19 -24 119 -99 308 -178 449 -77 136 -159 243 -287 369 -240 236 -526 387
-861 453 -139 27 -384 42 -413 24z"/>
<path d="M5090 6384 c-25 -8 -54 -17 -65 -19 -66 -15 -270 -110 -362 -168
l-43 -27 0 -103 c-2 -772 1 -1108 10 -1131 16 -42 68 -58 200 -62 63 -1 117
-3 120 -3 5 -1 5 -228 1 -253 0 -4 -72 -7 -158 -6 -220 1 -295 21 -369 94 -45
45 -71 105 -81 186 -4 35 -8 278 -7 541 l0 477 -29 -27 c-16 -16 -50 -50 -76
-77 -25 -27 -55 -59 -66 -70 -23 -24 -135 -152 -214 -247 -67 -79 -212 -224
-266 -266 -22 -17 -50 -39 -63 -50 l-22 -18 19 -65 c44 -152 128 -337 201
-445 95 -139 395 -439 655 -655 111 -92 259 -240 315 -314 30 -39 48 -55 59
-51 9 3 41 12 71 20 30 8 64 17 76 21 l21 6 1 666 c0 367 3 688 6 713 25 196
169 330 372 346 236 18 418 -133 431 -360 15 -261 -128 -416 -394 -426 l-63
-2 -1 80 c-1 103 -1 147 0 169 1 13 11 17 48 19 75 3 128 57 125 131 -5 136
-196 164 -232 33 -10 -38 -15 -1231 -4 -1231 11 0 99 65 168 124 92 79 299
286 406 406 47 52 87 97 90 100 3 3 25 30 50 60 96 118 223 245 312 312 32 24
57 49 58 56 0 28 -71 227 -114 315 -45 92 -108 197 -137 227 -8 8 -29 33 -48
55 -113 134 -377 388 -570 549 -118 98 -238 217 -314 314 -32 39 -61 72 -65
71 -4 0 -27 -7 -52 -15z"/>
<path d="M2480 5819 c-123 -84 -293 -188 -455 -279 -160 -90 -550 -272 -705
-329 -19 -8 -48 -19 -65 -26 -16 -7 -59 -23 -95 -36 -36 -12 -67 -24 -69 -26
-5 -4 -8 -213 -3 -234 2 -9 22 -22 45 -29 48 -14 307 -116 382 -150 28 -13 75
-34 105 -48 278 -125 629 -322 885 -496 117 -80 335 -240 385 -282 14 -12 68
-57 120 -100 52 -43 100 -83 106 -89 166 -149 290 -269 471 -458 128 -133 324
-262 523 -344 76 -32 210 -76 265 -88 11 -2 29 -6 40 -8 11 -3 43 -8 70 -12
28 -4 61 -9 75 -12 14 -2 87 -6 164 -8 l138 -4 -6 82 c-7 90 -10 111 -32 207
-20 89 -41 153 -77 233 l-31 68 -50 -7 c-154 -20 -420 -7 -610 32 -273 55
-583 201 -806 381 -408 329 -669 812 -717 1324 -20 214 2 491 53 669 9 30 18
62 19 70 2 8 10 34 19 58 8 23 12 42 8 41 -4 0 -72 -45 -152 -100z"/>
<path d="M3336 5013 c-15 -8 -33 -16 -40 -17 -6 -1 -16 -5 -22 -8 -10 -7 -136
-44 -179 -54 -55 -12 -145 -26 -190 -30 -67 -6 -84 -9 -89 -15 -3 -2 5 -41 18
-84 135 -463 446 -836 872 -1048 150 -75 355 -143 449 -149 19 -2 35 -5 35 -8
0 -6 6 -7 205 -15 l160 -7 -85 84 c-47 46 -112 106 -145 133 -137 113 -217
187 -391 360 -255 254 -324 343 -421 535 -34 69 -63 132 -63 141 0 8 -4 19 -9
25 -5 5 -21 46 -36 92 -14 45 -30 82 -33 81 -4 -1 -20 -8 -36 -16z"/>
<path d="M7177 4884 c-1 -1 -31 -5 -67 -9 -69 -8 -69 -8 -145 -24 -48 -11
-133 -36 -165 -48 -8 -4 -17 -7 -20 -8 -3 0 -29 -12 -58 -25 l-53 -23 8 -66
c11 -87 10 -390 -1 -466 -5 -33 -10 -70 -11 -82 -2 -12 -6 -34 -9 -50 -4 -15
-9 -40 -11 -54 -26 -140 -136 -422 -217 -554 -38 -62 -80 -127 -91 -140 -4 -5
-30 -40 -57 -76 -55 -74 -209 -233 -285 -294 -28 -22 -52 -42 -55 -45 -30 -32
-337 -220 -359 -220 -4 0 -31 -11 -60 -26 -134 -64 -409 -134 -591 -150 -157
-13 -333 -7 -473 17 -32 6 -70 12 -85 14 -36 5 -212 53 -237 64 -32 14 -55 21
-55 15 0 -3 33 -53 74 -112 217 -315 404 -659 586 -1077 30 -68 130 -333 130
-343 0 -5 8 -12 18 -14 21 -5 231 -3 235 3 2 2 14 33 26 69 111 318 300 715
502 1055 67 114 268 421 298 457 6 7 44 56 83 108 179 236 352 432 608 689
188 188 259 274 342 411 156 259 231 510 245 822 7 157 3 184 -27 184 -12 0
-22 -1 -23 -2z"/>
<path d="M1114 4534 c14 -137 25 -207 52 -329 134 -624 391 -1168 782 -1656
118 -148 400 -437 532 -545 294 -242 593 -431 895 -567 73 -33 132 -58 145
-62 3 -1 16 -6 30 -13 72 -32 360 -129 368 -124 1 1 18 -4 37 -12 19 -8 35
-13 35 -11 0 3 11 0 26 -5 14 -6 38 -12 54 -15 17 -3 58 -12 92 -20 79 -18
179 -36 283 -51 115 -16 148 -17 143 -3 -158 398 -285 661 -459 952 -85 140
-196 315 -209 327 -3 3 -25 34 -50 70 -24 36 -48 70 -52 75 -66 86 -204 263
-212 271 -6 7 -29 34 -51 60 -195 236 -499 534 -765 751 -323 263 -609 452
-995 657 -119 63 -191 98 -420 201 -24 11 -124 51 -254 103 -11 4 -12 -6 -7
-54z"/>
<path d="M8750 4536 c-276 -110 -617 -279 -844 -419 -280 -172 -519 -342 -731
-518 -240 -200 -497 -451 -685 -669 -12 -14 -31 -36 -43 -50 -121 -140 -322
-407 -429 -570 -57 -87 -158 -251 -158 -256 0 -2 -11 -23 -26 -45 -99 -158
-257 -480 -361 -739 -58 -143 -69 -175 -57 -167 5 3 34 8 64 12 78 9 190 26
260 40 54 10 133 27 191 40 102 22 355 104 504 162 190 75 459 209 613 305
288 181 481 335 717 572 168 169 192 195 288 316 38 47 74 92 80 100 34 42
171 247 226 339 133 222 259 490 335 713 43 127 86 263 92 298 3 14 9 40 15
58 6 18 12 43 14 55 2 12 10 54 19 93 13 63 23 120 42 239 8 49 16 145 12 145
-2 0 -64 -25 -138 -54z"/>
<path d="M6360 4509 c-42 -41 -111 -117 -155 -169 -259 -308 -571 -614 -730
-715 -121 -78 -299 -160 -430 -199 -33 -10 -64 -22 -69 -26 -4 -5 5 -42 22
-84 31 -77 67 -196 75 -251 3 -16 8 -41 11 -55 7 -28 16 -116 19 -173 2 -38 2
-38 34 -32 157 29 445 160 602 272 100 72 262 224 327 308 22 28 42 52 45 55
16 14 94 138 138 221 67 127 141 327 157 429 3 19 9 53 14 75 20 92 33 342 20
395 -5 22 -10 19 -80 -51z"/>
</g>
</svg>
