<?xml version="1.0" standalone="no"?>
<!DOCTYPE svg PUBLIC "-//W3C//DTD SVG 20010904//EN"
 "http://www.w3.org/TR/2001/REC-SVG-20010904/DTD/svg10.dtd">
<svg version="1.0" xmlns="http://www.w3.org/2000/svg"
 width="240.000000pt" height="240.000000pt" viewBox="0 0 240.000000 240.000000"
 preserveAspectRatio="xMidYMid meet">
<metadata>
Created by potrace 1.14, written by Peter Selinger 2001-2017
</metadata>
<g transform="translate(0.000000,240.000000) scale(0.100000,-0.100000)"
fill="#000000" stroke="none">
<path d="M1066 1781 c-4 -6 -16 -11 -26 -11 -35 0 -70 -23 -77 -49 -3 -14 -21
-53 -39 -87 -33 -60 -42 -98 -25 -108 4 -3 11 -57 15 -120 4 -63 13 -139 20
-168 8 -29 19 -79 26 -111 6 -33 26 -78 45 -106 l33 -50 -44 -46 c-35 -36 -44
-52 -44 -81 0 -44 -10 -53 -150 -136 -120 -72 -190 -137 -207 -194 -53 -179
-82 -281 -83 -290 0 -14 140 -97 229 -135 83 -35 226 -73 312 -84 65 -8 73 0
59 61 -9 40 -6 54 12 54 6 0 8 -9 5 -20 -6 -25 9 -36 29 -20 9 8 11 17 6 24
-5 6 -12 23 -16 38 -4 17 -14 28 -29 30 -12 2 -22 10 -22 18 0 8 5 14 11 13 6
-1 24 11 39 27 16 17 35 30 42 30 16 0 16 -5 3 -31 -12 -22 -3 -24 34 -8 14 7
23 16 19 21 -3 6 4 5 16 -1 11 -7 21 -18 21 -26 0 -8 7 -15 16 -15 14 0 14 -3
4 -15 -10 -12 -10 -18 0 -30 10 -12 10 -18 1 -29 -9 -11 -10 -25 -3 -50 6 -20
8 -45 5 -56 -4 -15 0 -20 16 -20 11 0 21 4 21 9 0 13 39 20 43 8 5 -17 200 34
306 81 89 39 222 121 291 180 l35 30 -22 87 c-41 159 -111 273 -195 316 -33
17 -38 23 -32 42 19 58 -8 92 -66 82 -32 -5 -40 -1 -82 40 -41 41 -54 48 -126
63 l-80 16 -6 44 c-3 25 -6 73 -6 109 0 63 0 63 25 57 15 -4 25 -2 25 5 0 6
-3 10 -7 10 -22 -4 -33 3 -33 20 0 23 23 34 39 18 21 -21 31 13 29 88 -3 60
-5 70 -20 67 -16 -2 -18 6 -18 65 0 132 -55 222 -174 284 -71 38 -95 47 -172
66 -12 3 -25 0 -28 -6z m126 -201 c86 -21 112 -41 127 -97 12 -44 2 -60 -27
-44 -44 23 -170 5 -144 -21 8 -8 8 -15 1 -24 -17 -21 -7 -67 16 -70 11 -1 30
-6 43 -9 16 -5 22 -4 20 5 -2 8 14 17 40 24 24 6 40 14 36 19 -4 4 -2 7 5 7 7
0 10 4 7 9 -3 5 2 12 11 15 10 4 14 4 10 0 -4 -4 -1 -14 5 -22 17 -20 19 -33
19 -129 0 -59 4 -83 14 -83 6 0 3 -5 -5 -10 -13 -9 -13 -10 0 -10 12 -1 11 -3
-2 -11 -10 -5 -18 -18 -18 -28 0 -10 -16 -34 -35 -54 -90 -93 -157 -116 -219
-77 -41 25 -40 23 -23 51 10 17 10 23 0 26 -7 3 -13 10 -13 16 0 8 3 8 11 0 5
-5 21 -8 35 -5 23 4 26 8 28 41 1 8 7 16 15 19 8 3 11 0 7 -7 -10 -16 7 -14
30 4 10 8 27 15 37 15 12 0 17 6 15 18 -2 13 -15 18 -58 20 -51 2 -53 1 -36
-13 19 -14 18 -15 -17 -15 -32 0 -36 3 -34 21 5 28 36 51 58 44 11 -4 22 1 28
14 9 17 6 23 -19 41 -23 16 -30 18 -30 7 0 -8 9 -17 20 -20 27 -7 25 -21 -2
-24 -87 -9 -83 -10 -80 17 15 118 15 118 -15 150 -15 16 -35 30 -44 30 -25 0
-20 108 7 142 18 23 32 29 89 36 6 1 45 -7 87 -18z m158 -150 c0 -5 -5 -10
-11 -10 -5 0 -7 5 -4 10 3 6 8 10 11 10 2 0 4 -4 4 -10z m-60 -20 c13 -9 13
-10 0 -10 -13 0 -13 -1 0 -10 26 -16 4 -21 -26 -5 -16 8 -40 15 -54 15 -20 0
-22 2 -10 10 8 5 29 10 45 10 17 0 37 -5 45 -10z m179 -140 c-1 -22 -2 -20
-13 10 -8 19 -11 39 -8 44 7 13 21 -23 21 -54z m-25 11 c8 -12 -3 -41 -15 -41
-5 0 -9 11 -9 25 0 25 14 34 24 16z m-394 -14 c0 -6 -4 -28 -10 -46 -6 -21 -6
-39 0 -46 6 -7 2 -15 -10 -23 -16 -10 -22 -7 -40 15 -26 34 -25 100 2 95 9 -1
19 2 23 8 9 14 35 13 35 -3z m147 -113 c-3 -3 -12 -4 -19 -1 -8 3 -5 6 6 6 11
1 17 -2 13 -5z m-157 -74 c0 -5 -2 -10 -4 -10 -3 0 -8 5 -11 10 -3 6 -1 10 4
10 6 0 11 -4 11 -10z m346 -69 c-4 -5 -2 -21 4 -36 7 -19 7 -24 -1 -19 -7 4
-9 0 -5 -12 3 -11 8 -35 10 -54 3 -19 7 -42 11 -51 11 -30 -35 -66 -119 -94
l-79 -26 -28 27 c-16 15 -26 32 -22 37 3 6 1 7 -5 3 -10 -6 -32 22 -32 41 0 4
21 16 45 27 25 10 44 23 42 30 -4 12 34 46 52 46 6 0 11 5 11 11 0 5 5 7 10 4
6 -4 28 11 48 34 20 22 43 40 50 41 7 0 11 -4 8 -9z m-166 -391 c0 -5 -4 -10
-10 -10 -5 0 -10 5 -10 10 0 6 5 10 10 10 6 0 10 -4 10 -10z m-48 -42 c2 -28
7 -42 16 -40 6 1 12 -5 12 -13 0 -31 -27 -14 -38 24 -14 47 -15 71 -3 71 6 0
11 -19 13 -42z m128 -3 c0 -38 -17 -48 -22 -13 -3 19 -4 20 -17 5 -11 -14 -10
-18 13 -28 28 -13 39 -64 12 -53 -8 3 -12 12 -10 19 8 20 -17 30 -31 12 -22
-31 -23 -6 -2 43 27 61 57 69 57 15z m-240 16 c0 -5 -5 -11 -12 -13 -10 -4 -9
-14 0 -46 7 -24 10 -48 6 -54 -4 -7 -13 8 -21 35 -12 43 -33 64 -33 35 0 -9
-3 -8 -10 2 -7 11 -2 19 23 32 37 20 47 22 47 9z m-110 -51 c0 -5 -10 -10 -22
-10 -19 0 -20 2 -8 10 19 13 30 13 30 0z m24 -56 c3 -9 6 -22 6 -30 0 -16 -44
-29 -62 -18 -9 6 -4 10 16 14 40 7 39 24 -1 28 -44 4 -42 22 1 22 22 0 36 -6
40 -16z m366 -4 c0 -5 -4 -10 -10 -10 -5 0 -10 5 -10 10 0 6 5 10 10 10 6 0
10 -4 10 -10z m-484 -33 c-11 -8 -17 -23 -14 -37 4 -33 26 -36 34 -5 4 18 10
23 17 16 6 -6 2 -20 -14 -40 -13 -16 -26 -30 -29 -30 -3 0 -13 16 -23 37 l-17
37 26 23 c14 13 29 20 32 17 3 -3 -2 -11 -12 -18z m742 -17 c13 -17 20 -35 16
-41 -4 -8 -12 -3 -21 14 -14 28 -43 27 -43 -2 -1 -14 -2 -13 -11 2 -8 14 -7
23 7 38 22 24 24 24 52 -11z m-154 -5 c11 -8 15 -15 10 -15 -6 0 -19 7 -30 15
-10 8 -14 14 -9 14 6 0 19 -6 29 -14z m76 -29 c0 -3 -4 -8 -10 -11 -5 -3 -10
-1 -10 4 0 6 5 11 10 11 6 0 10 -2 10 -4z m-700 -88 c0 -12 -8 -18 -21 -18
-16 0 -19 -4 -14 -20 9 -27 -2 -42 -23 -31 -10 6 -17 24 -18 51 -2 39 -1 41
22 36 29 -8 31 5 4 29 -11 10 -17 22 -13 28 8 13 62 -52 63 -75z m740 31 c0
-15 -21 -21 -35 -9 -22 19 -18 28 10 22 14 -2 25 -8 25 -13z m88 -16 c-10 -13
-10 -17 0 -20 18 -7 15 -23 -6 -23 -10 0 -27 -7 -38 -15 -20 -13 -34 -11 -34
6 0 4 9 10 20 14 10 3 29 22 41 42 13 20 25 31 27 24 2 -6 -2 -19 -10 -28z
m-594 -9 c5 -14 4 -15 -9 -4 -17 14 -19 20 -6 20 5 0 12 -7 15 -16z m180 -29
c-4 -8 -8 -15 -10 -15 -2 0 -4 7 -4 15 0 8 4 15 10 15 5 0 7 -7 4 -15z m-184
-49 c-1 -6 -10 0 -20 13 -11 13 -20 28 -20 35 1 6 10 0 20 -13 11 -13 20 -28
20 -35z m70 29 c0 -14 -4 -25 -10 -25 -5 0 -10 11 -10 25 0 14 5 25 10 25 6 0
10 -11 10 -25z m260 -197 c0 -11 -5 -15 -15 -12 -9 4 -15 19 -15 38 1 29 1 30
15 12 8 -11 15 -28 15 -38z"/>
<path d="M1245 170 c-3 -5 -1 -10 4 -10 6 0 11 5 11 10 0 6 -2 10 -4 10 -3 0
-8 -4 -11 -10z"/>
<path d="M1170 160 c0 -6 7 -13 15 -16 10 -4 12 -11 6 -21 -5 -9 -6 -24 -4
-34 4 -13 -2 -22 -21 -29 -31 -11 -36 -41 -6 -33 14 4 20 0 20 -11 0 -13 11
-16 51 -16 45 0 50 2 39 15 -7 8 -29 15 -49 15 l-36 0 30 25 c17 13 24 24 16
25 -8 0 -11 6 -7 16 10 27 -4 63 -22 57 -10 -4 -13 -2 -8 5 4 7 1 12 -8 12 -9
0 -16 -5 -16 -10z"/>
</g>
</svg>
