<?xml version="1.0" standalone="no"?>
<!DOCTYPE svg PUBLIC "-//W3C//DTD SVG 20010904//EN"
 "http://www.w3.org/TR/2001/REC-SVG-20010904/DTD/svg10.dtd">
<svg version="1.0" xmlns="http://www.w3.org/2000/svg"
 width="96.000000pt" height="96.000000pt" viewBox="0 0 96.000000 96.000000"
 preserveAspectRatio="xMidYMid meet">
<metadata>
Created by potrace 1.11, written by Peter Selinger 2001-2013
</metadata>
<g transform="translate(0.000000,96.000000) scale(0.100000,-0.100000)"
fill="#000000" stroke="none">
<path d="M120 730 c0 -23 -5 -30 -19 -30 -39 0 -41 -18 -39 -261 l3 -234 415
0 415 0 3 244 c2 171 -1 248 -9 257 -6 8 -24 14 -40 14 -16 0 -29 5 -29 10 0
6 -80 10 -220 10 -213 0 -220 -1 -220 -20 0 -11 -4 -20 -10 -20 -5 0 -10 9
-10 20 0 18 -7 20 -60 20 -53 0 -60 -2 -60 -20 0 -11 -4 -20 -10 -20 -5 0 -10
14 -10 30 0 29 -1 30 -50 30 -49 0 -50 -1 -50 -30z"/>
</g>
</svg>
