<?xml version="1.0" standalone="no"?>
<!DOCTYPE svg PUBLIC "-//W3C//DTD SVG 20010904//EN"
 "http://www.w3.org/TR/2001/REC-SVG-20010904/DTD/svg10.dtd">
<svg version="1.0" xmlns="http://www.w3.org/2000/svg"
 width="240.000000pt" height="240.000000pt" viewBox="0 0 240.000000 240.000000"
 preserveAspectRatio="xMidYMid meet">
<metadata>
Created by potrace 1.11, written by Peter Selinger 2001-2013
</metadata>
<g transform="translate(0.000000,240.000000) scale(0.100000,-0.100000)"
fill="#000000" stroke="none">
<path d="M1060 1775 c-14 -8 -34 -14 -46 -15 -22 0 -54 -29 -54 -49 0 -6 -16
-41 -35 -77 -35 -64 -43 -98 -26 -108 4 -3 11 -41 15 -83 18 -228 53 -374 103
-434 25 -29 25 -30 7 -52 -10 -12 -31 -34 -46 -49 -20 -20 -28 -37 -28 -63 0
-45 -23 -66 -145 -137 -49 -29 -113 -74 -142 -101 -56 -53 -70 -85 -127 -292
-20 -72 -66 -290 -66 -311 0 -2 145 -4 321 -4 l322 0 -6 60 c-5 57 -4 60 19
66 20 5 22 9 13 25 -5 10 -19 19 -29 19 -13 0 -20 7 -20 20 0 11 5 20 12 20 6
0 27 12 47 27 20 16 42 26 49 25 8 -2 16 6 19 17 6 24 23 28 23 7 0 -8 11 -24
25 -37 13 -13 25 -30 25 -36 0 -7 7 -13 16 -13 14 0 14 -3 3 -16 -10 -13 -10
-17 2 -24 11 -8 12 -13 2 -30 -19 -30 -16 -40 13 -40 22 0 24 3 19 23 -9 29
-9 29 -1 50 12 25 21 21 23 -10 2 -16 6 -56 9 -91 l6 -62 337 0 338 0 -18 135
c-23 172 -61 331 -99 409 -34 71 -101 146 -148 165 -32 13 -32 15 -26 61 7 56
-1 65 -60 61 -36 -1 -46 4 -86 42 -44 43 -77 57 -172 72 -35 5 -37 8 -44 52
-6 39 -1 154 10 243 2 14 4 31 5 39 0 8 7 11 17 7 13 -5 15 -1 10 18 -8 32 11
44 23 14 9 -22 10 -21 10 8 1 43 -7 47 -35 16 -19 -22 -23 -24 -24 -9 0 10 6
20 13 22 9 4 11 27 7 88 -11 172 -88 257 -300 331 -54 19 -49 19 -80 1z m135
-190 c32 -9 67 -17 77 -18 17 -3 78 -86 78 -107 0 -4 5 -10 12 -12 7 -3 13
-24 14 -49 1 -24 4 -51 7 -59 11 -30 14 -69 6 -64 -5 3 -9 -1 -9 -10 0 -8 4
-16 10 -18 5 -2 6 -18 0 -43 -5 -22 -11 -54 -13 -72 -7 -42 -48 -94 -110 -140
-40 -30 -61 -38 -106 -41 -49 -4 -59 -1 -84 22 -21 20 -26 31 -21 51 5 20 1
27 -19 36 -25 11 -43 37 -33 47 3 2 21 -6 41 -18 34 -21 65 -21 65 0 0 5 -8
10 -17 11 -23 1 40 18 91 24 48 6 68 21 46 35 -8 5 -19 10 -25 10 -5 0 -3 -5
5 -10 8 -5 11 -10 5 -10 -5 -1 -30 -5 -54 -9 -55 -11 -71 -5 -71 24 0 24 25
39 65 40 12 0 21 8 23 20 2 11 0 16 -5 10 -8 -9 -25 -13 -83 -18 -27 -2 -28 0
-15 94 6 39 4 49 -12 60 -11 8 -22 22 -26 32 -4 11 -17 17 -38 17 l-31 0 4 66
c4 58 8 70 32 90 33 29 101 32 191 9z m-180 -295 c3 -5 13 -6 21 -3 14 5 15
-2 9 -55 -6 -56 -5 -62 12 -63 12 0 7 -5 -14 -15 -18 -8 -33 -19 -33 -24 0
-21 -18 -9 -25 18 -3 15 -13 34 -21 44 -12 13 -13 24 -5 56 10 34 15 39 34 35
18 -4 19 -3 7 6 -9 7 -10 11 -3 11 6 0 14 -4 18 -10z m380 -326 c3 -49 8 -101
11 -116 8 -40 -37 -82 -111 -103 -33 -9 -67 -19 -75 -21 -20 -6 -110 81 -110
107 0 10 6 19 13 19 25 0 76 31 71 43 -2 7 17 22 47 35 52 24 139 101 139 123
0 7 2 10 5 8 2 -3 7 -46 10 -95z m-208 -421 c16 -12 12 -43 -6 -43 -14 0 -34
97 -25 118 6 12 9 7 12 -23 1 -22 10 -45 19 -52z m33 73 c0 -24 -17 -28 -23
-6 -3 13 0 20 9 20 8 0 14 -6 14 -14z m80 -67 c0 -56 2 -61 19 -56 12 3 22 -1
25 -9 6 -15 -4 -16 -44 -5 -14 4 -25 14 -25 24 0 9 -3 17 -7 17 -5 0 -13 0
-19 0 -5 0 -7 -4 -4 -10 3 -5 -1 -10 -9 -10 -20 0 -20 0 6 60 15 34 28 50 40
50 15 0 18 -9 18 -61z m-240 42 c0 -5 -5 -11 -12 -13 -10 -4 -9 -14 0 -46 7
-24 10 -48 6 -54 -4 -7 -13 8 -21 35 -14 47 -32 63 -34 30 0 -15 -2 -15 -8 2
-7 16 -2 23 23 37 36 20 46 22 46 9z m-110 -57 c0 -11 -5 -14 -16 -10 -9 3
-18 6 -20 6 -3 0 -2 5 1 10 10 16 35 12 35 -6z m520 -28 c0 -2 -8 -10 -17 -17
-16 -13 -17 -12 -4 4 13 16 21 21 21 13z m-492 -35 c4 -26 -12 -41 -45 -41
-14 0 -23 6 -23 15 0 11 7 14 25 9 19 -5 25 -2 25 10 0 11 -9 16 -30 16 -16 0
-30 5 -30 11 0 6 16 9 38 7 30 -2 38 -7 40 -27z m-108 -11 c0 -6 -7 -13 -15
-16 -17 -7 -19 -32 -5 -54 7 -11 11 -9 19 13 10 26 31 38 31 17 0 -14 -42 -70
-52 -70 -4 0 -8 7 -8 15 0 8 -9 24 -20 35 l-21 21 28 24 c30 26 43 31 43 15z
m566 -9 c-3 -5 1 -15 10 -22 13 -10 17 -10 25 2 7 12 9 11 9 -2 0 -26 -27 -30
-52 -9 -20 17 -21 21 -8 30 19 12 23 13 16 1z m159 -13 c25 -22 34 -58 15 -58
-6 0 -15 12 -20 26 -13 33 -34 21 -25 -14 6 -25 6 -26 -12 -9 -15 13 -22 14
-31 5 -18 -18 -15 -25 19 -37 29 -10 32 -31 4 -31 -14 0 -55 46 -55 62 0 6 9
12 20 15 11 3 20 10 20 16 0 10 29 47 36 47 2 0 15 -10 29 -22z m-794 -86 c28
-41 28 -62 -3 -62 -15 0 -18 -5 -13 -20 9 -28 -2 -42 -23 -31 -12 6 -18 23
-20 54 -1 40 1 44 18 40 23 -6 27 15 5 23 -8 4 -15 12 -15 20 0 25 25 14 51
-24z m144 18 c3 -5 2 -10 -4 -10 -5 0 -13 5 -16 10 -3 6 -2 10 4 10 5 0 13 -4
16 -10z m115 -68 c-1 -15 -3 -14 -18 4 -10 12 -28 25 -40 28 -12 4 -22 12 -22
17 0 5 18 0 40 -11 24 -12 40 -27 40 -38z m600 45 c0 -7 -6 -19 -12 -25 -10
-10 -10 -15 2 -22 17 -10 17 -10 -32 -32 -48 -22 -59 -6 -19 28 16 13 33 34
36 44 7 22 25 27 25 7z m-460 -32 c0 -5 -5 -3 -10 5 -5 8 -10 20 -10 25 0 6 5
3 10 -5 5 -8 10 -19 10 -25z m-80 -51 c0 -13 -4 -24 -10 -24 -5 0 -10 14 -10
31 0 17 4 28 10 24 6 -3 10 -17 10 -31z m150 26 c0 -5 -5 -10 -11 -10 -5 0 -7
5 -4 10 3 6 8 10 11 10 2 0 4 -4 4 -10z m-230 -30 c22 -31 13 -41 -14 -14 -15
14 -22 44 -12 44 3 0 14 -13 26 -30z"/>
<path d="M1168 1439 c-40 -23 0 -41 41 -20 16 9 56 4 106 -14 15 -5 14 -1 -8
19 -22 20 -38 26 -75 26 -26 0 -55 -5 -64 -11z"/>
<path d="M1154 1385 c-18 -13 -18 -15 8 -41 24 -24 30 -26 50 -16 13 6 39 15
58 20 l35 8 -25 16 c-38 24 -103 31 -126 13z"/>
<path d="M1367 1229 c4 -13 8 -18 11 -10 2 7 -1 18 -6 23 -8 8 -9 4 -5 -13z"/>
<path d="M1148 1163 c7 -3 16 -2 19 1 4 3 -2 6 -13 5 -11 0 -14 -3 -6 -6z"/>
<path d="M1260 555 c0 -8 5 -15 10 -15 6 0 10 7 10 15 0 8 -4 15 -10 15 -5 0
-10 -7 -10 -15z"/>
<path d="M1212 248 c-17 -17 -15 -27 6 -21 10 2 19 11 19 19 0 17 -9 18 -25 2z"/>
<path d="M1195 120 c-8 -13 5 -74 13 -65 10 10 12 75 2 75 -5 0 -12 -5 -15
-10z"/>
<path d="M1130 90 c0 -5 5 -10 10 -10 6 0 10 5 10 10 0 6 -4 10 -10 10 -5 0
-10 -4 -10 -10z"/>
<path d="M1312 43 c3 -35 28 -61 28 -29 0 9 7 16 15 16 19 0 19 5 -2 30 -28
32 -45 25 -41 -17z"/>
<path d="M1165 50 c-3 -5 1 -10 10 -10 9 0 13 5 10 10 -3 6 -8 10 -10 10 -2 0
-7 -4 -10 -10z"/>
<path d="M1185 10 c-4 -6 10 -10 35 -10 25 0 39 4 35 10 -8 13 -62 13 -70 0z"/>
</g>
</svg>
